<?xml version="1.0" encoding="UTF-8"?>
<!DOCTYPE svg PUBLIC "-//W3C//DTD SVG 1.1//EN" "http://www.w3.org/Graphics/SVG/1.1/DTD/svg11.dtd">
<!-- Creator: CorelDRAW -->
<svg xmlns="http://www.w3.org/2000/svg" xml:space="preserve" width="2048px" height="2048px" style="shape-rendering:geometricPrecision; text-rendering:geometricPrecision; image-rendering:optimizeQuality; fill-rule:evenodd; clip-rule:evenodd"
viewBox="0 0 2048 2048"
 xmlns:xlink="http://www.w3.org/1999/xlink">
 <defs>
  <style type="text/css">
   <![CDATA[
    .fil2 {fill:none}
    .fil1 {fill:#424242}
    .fil0 {fill:#424242;fill-rule:nonzero}
   ]]>
  </style>
 </defs>
 <g id="Layer_x0020_1">
  <metadata id="CorelCorpID_0Corel-Layer"/>
  <g id="_290559416">
   <path id="_290560592" class="fil0" d="M1070.98 1057.86c-12.3508,-9.24095 -29.0292,-13.8484 -46.9807,-13.8484 -17.9516,0 -34.6323,4.60748 -46.9819,13.8484 -12.9154,9.66497 -20.8181,23.6232 -20.8181,41.8642 0,17.4307 7.88977,35.7461 20.524,49.1599 12.098,12.8469 28.6902,21.6059 47.276,21.6059 18.5835,0 35.1768,-8.75906 47.276,-21.6059 12.6331,-13.4138 20.5229,-31.7303 20.5229,-49.1599 0,-18.241 -7.90276,-32.1992 -20.8181,-41.8642z"/>
   <path id="_290560064" class="fil0" d="M1039.91 1160.22c0,-8.78741 -7.1256,-15.913 -15.913,-15.913 -8.78741,0 -15.913,7.1256 -15.913,15.913 0,24.4063 9.89646,46.5071 25.8921,62.5028 15.9945,15.9957 38.0953,25.8921 62.5028,25.8921 24.4075,0 46.5071,-9.89646 62.5028,-25.8921 15.9969,-15.9957 25.8921,-38.0965 25.8921,-62.5028 0,-8.78741 -7.12441,-15.913 -15.9118,-15.913 -8.78741,0 -15.913,7.1256 -15.913,15.913 0,15.6225 -6.33189,29.7662 -16.5673,40.0016 -10.2354,10.2366 -24.3803,16.5685 -40.0028,16.5685 -15.6225,0 -29.7673,-6.33189 -40.0016,-16.5685 -10.2354,-10.2354 -16.5673,-24.3792 -16.5673,-40.0016z"/>
   <path id="_290560208" class="fil0" d="M1039.91 1160.22c0,-8.78741 -7.1256,-15.913 -15.913,-15.913 -8.78741,0 -15.913,7.1256 -15.913,15.913 0,15.6225 -6.33189,29.7662 -16.5673,40.0016 -10.2354,10.2366 -24.3803,16.5685 -40.0028,16.5685 -15.6225,0 -29.7673,-6.33189 -40.0028,-16.5685 -10.2354,-10.2354 -16.5673,-24.3792 -16.5673,-40.0016 0,-8.78741 -7.1256,-15.913 -15.913,-15.913 -8.78741,0 -15.9118,7.1256 -15.9118,15.913 0,24.4063 9.89528,46.5071 25.8921,62.5028 15.9957,15.9957 38.0953,25.8921 62.5028,25.8921 24.4075,0 46.5083,-9.89646 62.504,-25.8921 15.9957,-15.9957 25.8921,-38.0965 25.8921,-62.5028z"/>
   <ellipse id="_290559968" class="fil1" cx="697.733" cy="840.611" rx="42.3404" ry="42.3404"/>
   <ellipse id="_290560400" class="fil1" cx="1350.27" cy="840.611" rx="42.3404" ry="42.3404"/>
   <path id="_290559296" class="fil1" d="M1540.1 546.015c-132.08,-132.08 -314.551,-213.775 -516.104,-213.775 -201.553,0 -384.024,81.6946 -516.104,213.775 -44.1957,44.1957 -82.7505,94.0335 -114.495,148.35 -0.168898,0.317717 -0.350788,0.630709 -0.543308,0.941339 -0.0318898,0.0507874 -0.0625985,0.100394 -0.0944883,0.15 -62.7189,107.744 -98.6434,233.008 -98.6434,366.664 0,201.553 81.6946,384.024 213.776,516.104 132.08,132.082 314.551,213.776 516.104,213.776 201.553,0 384.024,-81.6946 516.104,-213.776 132.082,-132.08 213.776,-314.551 213.776,-516.104 0,-133.656 -35.9244,-258.92 -98.6434,-366.664 -0.0318898,-0.0496063 -0.0625985,-0.0992127 -0.0944883,-0.15 -0.194882,-0.314173 -0.377953,-0.630709 -0.549213,-0.951969 -31.7386,-54.3059 -70.2934,-104.144 -114.489,-148.339zm-516.104 384.645c182.543,0 330.522,107.454 330.522,323.636 0,216.183 -147.979,459.233 -330.522,459.233 -182.543,0 -330.522,-243.05 -330.522,-459.233 0,-216.182 147.979,-323.636 330.522,-323.636zm165.037 -127.961c36.3638,-55.226 141.802,-86.9776 238.557,-23.2701 96.7536,63.7063 109.251,173.111 72.8882,228.338 -36.3626,55.226 -80.8264,-5.6315 -177.58,-69.3378 -96.7536,-63.7063 -170.228,-80.5052 -133.865,-135.73zm-568.629 -23.2701c96.7548,-63.7075 202.193,-31.9559 238.557,23.2701 36.3626,55.2248 -37.1114,72.0237 -133.865,135.73 -96.7536,63.7063 -141.217,124.564 -177.58,69.3378 -36.3626,-55.2272 -23.8654,-164.632 72.8882,-228.338z"/>
   <path id="_290559104" class="fil1" d="M640.495 363.496c-38.9162,-53.6339 -92.7178,-88.565 -148.24,-101.682 -54.5103,-12.8764 -110.63,-4.66772 -155.557,27.6449 -0.388583,0.309449 -0.790158,0.602363 -1.20709,0.876379 -44.6221,32.6717 -69.8186,83.4449 -74.4804,139.215 -4.7563,56.9067 11.7602,118.924 50.6776,172.557 10.65,14.6776 22.3855,27.9284 34.9394,39.6922 8.79804,8.24764 18.0354,15.7925 27.613,22.6146 31.4634,-51.2941 68.83,-98.5761 111.155,-140.9 51.2752,-51.2752 109.827,-95.2749 173.974,-130.316 -1.57087,-2.85591 -3.20551,-5.71063 -4.90512,-8.55946 -4.04174,-6.77835 -8.52993,-13.6051 -13.474,-20.4591l-0.506693 -0.662599 0.011811 -0.0212599z"/>
   <path id="_290559536" class="fil1" d="M1786.99 429.551c-4.68307,-56.0245 -30.0851,-107.007 -75.0969,-139.669l-0.0129921 0.0188977 -0.578741 -0.441733c-44.9244,-32.3126 -101.046,-40.5189 -155.554,-27.6437 -55.5225,13.1162 -109.326,48.0461 -148.25,101.688l0.0188977 0.0129921 -0.506693 0.661418c-4.94055,6.8504 -9.42993,13.6772 -13.4705,20.4555 -1.70079,2.85118 -3.33662,5.70827 -4.90867,8.56654 64.1469,35.041 122.698,79.0394 173.973,130.315 42.3248,42.3237 79.6914,89.6056 111.155,140.9 9.57757,-6.82323 18.815,-14.3681 27.6142,-22.6169 12.5539,-11.7626 24.2894,-25.0134 34.9465,-39.7004l-0.0188977 -0.0129921 0.462992 -0.604725c38.5902,-53.4886 54.965,-115.244 50.2264,-171.928z"/>
  </g>
 </g>
 <rect class="fil2" width="2048" height="2048"/>
</svg>
