<svg width="210mm" height="297mm" viewBox="0 0 210 297" xmlns="http://www.w3.org/2000/svg"><path d="M103.137 165.996c-9.465-.679-20.422-3.254-26.731-6.282-11.218-5.384-17.246-14.582-19-28.994-.539-4.42-.279-17.251.42-20.764.139-.696.133-.699-1.278-.699-1.559 0-2.284-.464-2.582-1.65-.19-.758.286-2.06.83-2.269.208-.08 1.026-.218 1.817-.307.792-.089 1.568-.262 1.725-.385.157-.123.362-.822.455-1.553.572-4.466 2.933-13.084 5.025-18.347 6.675-16.788 20.576-28.633 36.352-30.975 3.054-.454 9.22-.517 12.372-.128 15.777 1.95 27.258 9.785 33.504 22.865 3.287 6.883 5.351 16.444 5.351 24.787v2.872l.699.138c1.726.34 2.734.793 3.012 1.354.632 1.274-.267 2.241-2.361 2.54l-1.223.174-.053 2.919c-.235 12.94-.861 22.53-1.708 26.17-1.613 6.928-5.593 13.345-11.169 18.004-6.588 5.506-14.139 8.8-23.028 10.045-2.898.406-9.782.675-12.429.485zm10.615-4.938c9.721-1.059 17.279-4.345 23.215-10.094 2.89-2.799 4.598-5.17 6.305-8.752 2.77-5.814 3.149-8.77 3.676-28.7l.147-5.525-1.088-.015a18.436 18.436 0 0 1-2.269-.21l-1.182-.195-.283 1.925c-.603 4.109-1.94 6.624-3.78 7.116-2.02.54-7.07.81-13.698.731l-6.917-.081-.774-.775c-.904-.904-1.793-3.286-2.627-7.04l-.578-2.599-1.33-.447c-2.444-.82-5.828-1.274-8.254-1.107-2.232.154-6.3.977-7.007 1.417-.29.18-.397 1.198-.508 4.807-.1 3.258-.235 4.672-.47 4.907-.258.257-2.308.329-9.398.329-8.808 0-11.227-.162-13.661-.913-1.809-.558-2.9-2.725-2.9-5.761 0-1.577-.022-1.634-.571-1.487-.315.084-2.143.229-4.064.322-1.921.094-3.493.181-3.493.195 0 .013-.17 1.624-.379 3.58-.498 4.692-.495 12.958.007 16.814 1.503 11.543 6.254 19.699 14.244 24.454 6.036 3.593 13.833 5.828 24.355 6.982 3.81.418 10.04.475 13.282.122zm-7.748-6.703c-2.578-.806-4.398-2.456-5.032-4.563-.587-1.95.446-2.622 1.497-.974 1.385 2.17 3.314 3.167 6.13 3.167 2.056 0 3.456-.497 5.464-1.94 2.389-1.716 3.415-1.925 3.71-.754.38 1.514-2.356 4.247-5.054 5.048-1.578.469-5.238.477-6.715.015zm-1.85-13.498c-3.01-.8-6.127-2.957-7.23-5.007l-.476-.882-1.418.508c-2.018.724-6.225.9-8.406.35-4.044-1.016-7.668-3.883-9.474-7.493-1.54-3.08-1.328-3.38 2.437-3.453 2.426-.046 2.827-.134 6.151-1.344 1.956-.712 4.013-1.408 4.572-1.547 3.08-.764 5.947-.544 9.158.703l1.833.712.346-.787c.293-.664.486-.787 1.235-.787.811 0 .917.088 1.22 1.016.45 1.38 1.668 2.57 3.223 3.152 2.045.765 3.445.892 4.585.416 1.844-.77 2.547-1.781 2.814-4.047.216-1.842-.528-4.21-2.176-6.927-.664-1.096-1.79-2.942-2.501-4.104-1.335-2.18-1.435-2.841-.43-2.841 1.103 0 5.491 5.497 7.056 8.84.644 1.378.81 2.1.896 3.888l.105 2.195 1.418.167c1.983.233 5.19 1.354 9.82 3.433 2.18.98 4.875 2.082 5.988 2.452 1.697.562 2.05.775 2.186 1.317.212.846-.04 1.214-1.84 2.68-1.972 1.605-5.544 3.351-8.225 4.02-2.77.69-7.338.572-9.914-.259-.908-.293-1.727-.534-1.821-.536-.094-.002-.249.353-.344.788-.269 1.223-1.744 2.67-3.325 3.262-1.682.63-5.315.685-7.464.115zm5.512-2.69c.83-.353 2.877-2.225 2.852-2.61-.018-.259-3.032-2.616-5.13-4.011-.578-.385-1.4-.7-1.825-.701-.799-.003-6.744 2.727-6.744 3.096 0 .114.394.643.876 1.176 2.198 2.433 7.556 4.072 9.97 3.05zm21.792-23.804c5.2-.207 6.212-.517 7.353-2.254 1.64-2.494 1.128-9.231-.91-11.988-.32-.432-1.213-1.096-1.987-1.476-1.396-.685-1.45-.69-6.615-.679-4.815.011-12.458.65-13.141 1.1-.301.197.516 6.663 1.223 9.673.745 3.175 2.216 5.21 4.245 5.872.379.124 1.717.16 2.974.079 1.258-.08 4.344-.228 6.858-.327zm-11.046-3.63c-.768-1.25-1.084-2.685-.962-4.368.094-1.3.217-1.599.919-2.226 1.07-.956 1.855-.929 2.717.095.66.784.684.914.564 2.985-.164 2.842-.753 4.165-1.902 4.276-.694.067-.898-.05-1.336-.762zm-26.126-2.238c.09-3.143.236-6.6.323-7.683.087-1.083.127-1.97.089-1.972-.039-.002-1.784-.17-3.88-.376-10.586-1.035-14.787.063-17.149 4.485-.737 1.382-.873 1.914-.963 3.768-.057 1.192.027 2.644.188 3.242.566 2.096 2.528 3.656 5.152 4.097.738.124 4.657.21 8.708.19l7.366-.036zm-5.689 3.308c-.351-.277-.701-.762-.779-1.08a257.18 257.18 0 0 0-.416-1.674c-.373-1.477-.003-2.752 1.101-3.793 1.114-1.051 1.603-1.038 2.748.075 1.46 1.418 1.794 3.941.76 5.746-.717 1.25-2.314 1.59-3.414.726zm-17.917-8.046c.64-4.464 2.879-7.037 6.728-7.732.81-.147 1.67-.372 1.913-.502.57-.304 3.499-.3 7.814.014 5.339.388 8.696.77 9.5 1.081l.736.286-.165 4.004-.165 4.003 1.333-.609c2.177-.994 4.207-1.43 7.303-1.568 2.75-.123 4.48.082 7.085.837l.609.176-.181-1.833c-.1-1.008-.339-2.358-.532-3-.417-1.386-.188-1.995.828-2.209 1.95-.41 9.14-1.173 13.527-1.436 7.611-.456 9.828-.12 12.037 1.824 1.632 1.437 3.19 4.933 3.2 7.177.003.637.075.707.575.555.314-.095 1.36-.24 2.324-.32l1.754-.148-.156-4.598c-.394-11.61-2.696-20.241-7.213-27.045-1.815-2.735-5.285-6.355-7.878-8.22-9.11-6.552-23.334-8.876-34.632-5.658-15.162 4.318-27.366 18.222-31.997 36.453-.815 3.21-2.023 8.971-1.905 9.09.04.04 1.422.183 3.07.318 1.647.134 3.057.305 3.132.38.076.076.37.104.653.063.412-.059.554-.337.703-1.383zm3.503-9.873c-1.882-.854-2.796-2.211-2.796-4.153 0-1.56.61-2.365 2.865-3.784 2.899-1.824 6.497-2.994 11.485-3.735 4.127-.613 6.146-.597 7.399.059 2.83 1.48 3.692 4.82 1.964 7.615-1.002 1.621-2.405 2.308-5.332 2.61-1.257.13-4.04.525-6.183.877-5.322.873-8.253 1.033-9.402.511zm52.83-.728c-5.47-1.05-7.021-1.491-9.189-2.618-1.241-.646-1.803-1.108-2.095-1.725-1.52-3.204 1.616-4.997 9.38-5.361 4.049-.19 7.742.17 9.504.928 1.543.664 3.553 2.75 3.622 3.759.166 2.437-.339 3.53-2.201 4.766-1.955 1.298-3.356 1.337-9.02.25z" style="fill:#000;stroke-width:.264583"/></svg>