<?xml version="1.0" encoding="utf-8"?>
<!-- Generator: Adobe Illustrator 23.0.3, SVG Export Plug-In . SVG Version: 6.00 Build 0)  -->
<svg version="1.1" id="Layer_1" xmlns="http://www.w3.org/2000/svg" xmlns:xlink="http://www.w3.org/1999/xlink" x="0px" y="0px"
	 viewBox="0 0 1200 1200" enable-background="new 0 0 1200 1200" xml:space="preserve">
<g>
	<g>
		<path fill="#364454" d="M800.786,878.093c-1.724,14.098-6.146,27.2-14.451,38.892c-4.992,7.016-11.145,11.333-22.26,9.332
			c0-4.46,0.3-8.425-0.052-12.33c-1.259-13.911-1.791-27.971-4.302-41.658c-6.978-38.06-20.911-73.894-36.913-108.956
			c-1.027-2.256-2.121-4.677-3.845-6.341c-1.199-1.154-3.598-1.761-5.322-1.536c-3.02,0.39-3.98,3.17-3.335,5.659
			c1.117,4.317,2.766,8.514,4.43,12.659c11.895,29.688,23.137,59.586,30.363,90.825c8.739,37.783,8.619,75.198-4.512,112.171
			c-9.811,27.619-23.857,52.653-42.932,74.973c-7.076,8.29-16.242,14.84-21.054,25.108c-0.697,1.477-3.11,2.286-4.872,3.103
			c-3.605,1.686-7.3,3.171-11.258,4.864c-19.315-10.785-36.396-5.689-51.888,8.545c-2.743-1.169-5.074-1.994-7.255-3.118
			c-10.516-5.419-19.352-2.076-27.305,5.284c-2.166,2.009-4.46,4.34-5.539,6.993c-2.923,7.188-8.477,8.649-15.462,9.376
			c-35.864,3.733-71.825,3.68-107.802,3.553c-2.376-0.007-4.744-0.63-6.91-0.944c-1.439-3.388-2.473-6.198-3.793-8.874
			c-4.587-9.324-12.277-14.211-22.485-15.177c-7.03-0.667-13.948-0.285-20.514,2.818c-2.616,1.244-5.397,2.129-8.2,3.208
			c-6.888-6.806-13.911-12.314-23.212-13.948c-10.193-1.799-18.235,3.388-25.581,8.432c-4.902-2.496-8.769-4.819-12.899-6.491
			c-5.209-2.113-10.306-2.743-15.23-2.009c-0.607-0.817-1.439-1.544-2.466-2.114c-0.869-0.48-1.836-0.765-2.721-1.214
			c-37.206-18.768-83.54-60.98-103.102-97.878c-9.684-18.281-15.477-37.82-16.512-58.671c-1.019-20.604,0.937-40.908,5.636-60.95
			c7.915-33.713,19.802-65.949,36.186-96.499c1.409-2.623,2.938-5.269,3.778-8.094c0.75-2.526-0.15-5.284-2.893-6.094
			c-1.582-0.465-4.28-0.105-5.277,0.982c-2.668,2.893-5.022,6.206-6.91,9.669c-27.44,50.315-45.135,103.297-43.899,161.429
			c0.053,2.398-0.517,4.812-0.787,7.158c-13.484-0.337-18.37-2.263-25.895-9.991c-6.048-6.213-9.961-13.708-12.839-21.773
			c-6.491-18.138-8.522-36.936-7.645-56.056c0.914-19.997,3.47-39.836,8.132-59.301c7.937-33.166,18.228-65.372,38.247-93.726
			c8.395-11.895,14.323-25.214,16.534-39.821c1.342-8.882,2.451-17.808,3.245-26.758c3.11-34.972,3.185-69.487-6.139-104.046
			c-11.168-41.388-12.562-83.877-6.528-126.404c6.198-43.599,21.091-84.192,43.951-121.75c9.339-15.342,19.682-30.078,29.808-44.925
			c7.18-10.531,6.588-12.629-5.501-15.665c-0.48-0.12-1.004-0.075-1.469-0.225c-3.133-0.974-4.707-4.017-3.673-7.06
			c2.159-6.371,6.663-11.07,11.295-15.65c3.905-3.853,8.147-7.398,11.767-11.497c3.882-4.407,1.619-10.501-4.182-11.22
			c-4.917-0.607-9.953-0.315-14.938-0.337c-8.072-0.038-16.017-0.922-23.257-4.737c-14.301-7.548-16.055-20.522-4.37-31.607
			c5.936-5.644,13.214-8.897,20.904-11.288c12.974-4.025,26.308-5.876,39.851-6.161c9.991-0.202,19.989-0.023,29.98-0.195
			c3.455-0.06,7.023-0.21,10.336-1.087c5.359-1.417,7.3-7.847,3.792-11.97c-1.596-1.881-3.733-3.29-5.554-4.992
			c-2.916-2.721-6.123-5.224-8.574-8.327c-7.03-8.882-4.797-15.86,5.824-19.217c8.829-2.796,17.876-2.571,26.69-0.727
			c18.063,3.793,36.156,7.645,53.949,12.494c35.841,9.781,72.125,15.657,109.353,16.152c23.46,0.307,46.949,1.237,70.326,3.088
			c29.133,2.301,56.993,9.998,83.06,23.489c2.286,1.184,4.092,3.313,7.3,5.989c-6.558,1.544-11.393,2.631-16.212,3.815
			c-28.781,7.113-56.018,18.146-81.719,32.881c-14.001,8.027-26.518,17.936-35.826,31.329
			c-22.013,31.689-40.893,65.132-55.336,100.959c-7.6,18.873-10.261,38.555-7.75,58.814c2.533,20.402,7.443,40.241,15.117,59.331
			c4.122,10.261,9.736,19.682,16.849,28.189c8.252,9.848,16.309,19.869,24.749,29.561c39.267,45.113,87.22,72.095,148.582,72.215
			c32.686,0.06,64.78-3.305,96.349-11.722c3.725-0.997,7.577-1.522,12.524-2.488c0,4.872,0.532,8.822-0.105,12.577
			c-1.679,9.901-4.729,19.48-9.909,28.114c-6.671,11.123-13.708,22.036-20.859,32.858c-13.843,20.941-32.499,35.796-55.471,46.237
			c-53.927,24.509-110.785,36.658-169.374,41.418c-37.401,3.043-74.883,2.938-112.141-2.721
			c-23.662-3.598-47.616-5.929-69.607-16.594c-0.72-0.352-1.874,0.21-2.826,0.345c-3.238,5.749-3.583,8.042-0.105,9.931
			c6.094,3.298,12.389,6.543,18.993,8.499c32.761,9.699,66.511,13.739,100.486,15.11c46.612,1.874,92.856-2.361,138.524-11.835
			c45.203-9.384,88.899-23.115,128.675-47.384c1.207-0.742,2.773-0.884,4.879-1.521c1.087,2.256,2.181,4.355,3.125,6.521
			c9.549,21.976,18.663,44.139,28.706,65.882c15.133,32.783,26.787,66.706,34.777,101.873
			C800.876,837.185,803.312,857.481,800.786,878.093z"/>
		<path fill="#FFBC75" d="M681.736,136.9c26.065,0.358,48.008,5.273,69.842,10.521c27.72,6.663,54.683,15.767,80.548,27.797
			c23.529,10.944,46.886,22.271,70.164,33.743c75.157,37.035,126.364,96.122,158.205,172.802
			c6.692,16.114,13.151,32.341,17.019,49.487c2.577,11.426,2.037,22.841,1.018,34.268c-0.534,5.989-2.518,11.741-6.442,16.535
			c-5.933,7.248-13.711,10.6-22.602,7.569c-6.96-2.371-13.651-6.08-19.793-10.192c-12.026-8.05-23.363-17.13-35.383-25.189
			c-34.814-23.343-72.895-39.252-113.837-47.987c-25.975-5.542-52.304-7.243-78.925-5.884c-46.998,2.399-93.483,8.355-139.23,19.317
			c-19.387,4.645-38.363,10.985-57.591,16.319c-15.374,4.266-30.785,8.431-46.299,12.144c-8.829,2.113-17.768,1.529-26.695-0.7
			c-11.672-2.915-20.949-9.118-28.103-18.635c-6.964-9.263-12.499-19.387-15.533-30.543c-4.053-14.909-7.988-29.908-10.768-45.089
			c-2.826-15.437-1.065-30.905,3.898-45.833c2.515-7.564,5.328-15.066,8.577-22.341c12.245-27.418,27.211-53.34,43.661-78.436
			c8.643-13.187,19.594-23.969,33.142-31.959c29.931-17.653,61.85-30.22,96.144-36.252
			C670.084,137.07,677.662,137.189,681.736,136.9z"/>
		<path fill="#E68C5B" d="M534.325,461.533c24.468,2.333,46.437-4.35,68.271-11.417c34.216-11.074,68.788-20.629,104.347-26.375
			c37.975-6.137,76.072-10.994,114.63-10.755c61.796,0.384,117.501,19.968,168.584,53.905c1.986,1.32,3.709,3.034,6.634,5.458
			c-3.865,1.638-6.355,3.12-9.047,3.763c-13.689,3.263-27.661,3.636-41.656,3.82c-14.968,0.197-29.961,0.149-44.894,1.035
			c-23.572,1.401-46.136,7.695-68.528,14.94c-25.617,8.288-51.281,16.547-77.262,23.564c-36.536,9.868-73.911,11.315-111.443,7.575
			c-18.012-1.794-35.233-6.966-51.253-15.57c-19.039-10.226-35.926-23.412-51.527-38.283c-2.156-2.055-4.045-4.411-5.881-6.765
			C534.786,465.767,534.902,464.614,534.325,461.533z"/>
		<path fill="#E68C5B" d="M335.21,1132.164c-2.378-11.987,0.837-21.555,7.455-29.987c5.943-7.572,15.952-8.623,23.91-3.104
			c4.18,2.899,7.154,6.715,8.785,11.607c2.893,8.679-0.062,15.878-8.334,19.556c-2.24,0.996-4.645,1.938-7.049,2.187
			C352.162,1133.234,344.305,1134.232,335.21,1132.164z"/>
		<path fill="#E68C5B" d="M619.223,1122.12c-0.477-4.127-0.946-7.533-1.251-10.953c-0.789-8.829,1.487-12.902,9.151-16.593
			c12.952-6.238,26.378-2.27,32.048,9.47c4.462,9.24,0.908,16.931-9.019,19.514C643.818,1125.207,630.481,1124.705,619.223,1122.12z
			"/>
		<path fill="#E68C5B" d="M326.089,1102.257c-1.801,10.841-3.57,21.494-5.34,32.144c-13.1,3.533-21.728,0.588-26.317-8.987
			c-4.285-8.941-1.598-21.481,5.813-27.121C308.331,1092.139,316.861,1093.51,326.089,1102.257z"/>
		<path fill="#E68C5B" d="M389.42,1128.509c0-6.544,0-12.892,0-19.028c6.241-7.303,14.069-7.746,22.141-6.611
			c7.221,1.016,11.948,6.329,12.259,12.95c0.343,7.303-4.317,13.225-12.129,14.604
			C404.315,1131.726,396.907,1131.821,389.42,1128.509z"/>
		<path fill="#E68C5B" d="M675.72,1120.823c-1.905-10.008-3.379-17.751-4.93-25.895c1.507-3.565,5.027-3.988,8.575-3.654
			c6.194,0.583,11.538,3.17,15.512,8.067c6.391,7.875,3.742,17.291-5.935,20.03C684.818,1120.54,680.312,1120.363,675.72,1120.823z"
			/>
		<path fill="#E68C5B" d="M590.213,1127.229c-3.012-0.728-5.989-1.096-8.681-2.176c-4.548-1.824-6.594-6.325-5.128-10.921
			c0.744-2.331,1.801-4.629,3.1-6.702c6.956-11.108,16.662-7.763,23.194-0.218c5.12,5.916,3.076,13.788-4.081,17.306
			C596.017,1125.796,593.056,1126.337,590.213,1127.229z"/>
		<path fill="#FFE7CB" d="M476.946,295.679c0,6.364,0.01,13.331-0.003,20.299c-0.023,13.483-0.073,26.966-0.085,40.449
			c-0.025,27.407,8.38,51.965,25.155,73.607c16.514,21.305,33.648,42.045,53.239,60.695c18.346,17.466,38.708,31.137,63.604,35.204
			c30.333,4.955,60.737,7.06,91.114,6.257c11.358-0.3,28.511-5.949,39.887-7.039c13.319-1.276,22.243-8.853,35.454-1.594
			c0.607,2.968,1.34,6.311,1.958,9.675c0.266,1.445,0.953,3.345,0.331,4.34c-6.757,10.809-6.873,23.774-11.828,35.257
			c-8.018,18.582-18.891,35.134-32.44,49.896c-8.423,9.177-17.934,17.352-26.88,26.056c-2.468,2.402-6.311,4.87-6.677,7.679
			c-1.13,8.675-6.404,15.479-9.104,23.399c-5.303,15.558-10.495,31.287-17.526,46.093c-11.262,23.712-27.153,43.814-49.125,59.158
			c-22.575,15.765-47.263,25.513-74.121,30.254c-27.737,4.897-55.49,4.021-83.386,0.712c-27.855-3.304-54.907-9.536-81.402-18.592
			c-40.506-13.845-75.675-35.92-103.831-68.299c-20.528-23.607-36.409-50.022-42.858-81.124
			c-2.216-10.687-3.701-21.599-4.516-32.484c-0.933-12.465-2.218-24.848-5.69-36.827c-2.764-9.535-6.012-19-9.939-28.111
			c-8.291-19.234-17.426-38.103-25.742-57.327c-12.905-29.831-18.356-61.098-15.606-93.498c1.82-21.448,7.405-42.124,15.416-62.142
			c8.778-21.934,20.93-41.931,34.958-60.797c10.47-14.081,22.733-26.454,37.316-36.418c17.395-11.886,36.817-17.56,57.625-18.456
			c12.46-0.537,24.995-0.659,37.441,0.031c37.531,2.082,68.159,17.37,90.023,48.637
			C465.121,278.412,470.434,286.225,476.946,295.679z"/>
		<path fill="#364454" d="M832.84,406.238c-5.332-10.128-4.957-20.221-4.094-30.128c2.723-31.272,10.729-61.046,29.219-86.878
			c19.467-27.196,44.294-47.085,78.291-53.567c12.468-2.377,23.294-0.839,33.81,6.916c10.975,8.094,20.502,17.388,29.004,27.915
			c6.265,7.758,12.824,15.284,18.959,23.142c17.277,22.133,31.604,46.016,42.358,72.011c3.813,9.217,7.788,18.378,12.024,27.408
			c6.209,13.235,9.357,27.39,12.248,41.525c3.079,15.053,0.419,29.899-5.142,44.033c-5.459,13.875-16.374,19.027-31.286,16.147
			c-15.155-2.927-27.642-11.129-39.906-19.733c-16.353-11.473-32.907-22.496-50.728-31.707
			c-25.089-12.969-51.745-20.712-79.192-26.43c-10.708-2.231-21.238-5.3-31.877-7.873
			C842.233,407.981,837.863,407.248,832.84,406.238z"/>
		<path fill="#ED93A1" d="M298.374,499.405c-0.629,0.004-1.248-0.002-1.855-0.018c-8.769-0.237-17.91-3.647-22.929-10.841
			c-9.422-13.504,3.082-25.425,12.937-33.689c12.332-10.341,27.497-17.104,43.069-20.855c5.854-1.41,12.085-2.339,17.832-0.541
			c9.511,2.975,15.583,13.437,14.883,23.377C360.382,484.248,322.153,499.241,298.374,499.405z"/>
		<path fill="#1B2033" d="M1089.818,430.772c-2.496-9.661-4.932-19.382-8.155-28.811c-31.12-90.893-86.538-161.249-173.706-204.548
			c-21.466-10.658-42.917-21.376-64.712-31.344c-49.872-22.8-101.813-38.262-156.789-42.272c-3.658-0.262-6.513-1.439-9.436-3.74
			c-21.638-17.059-46.694-26.997-73.309-32.469c-17.538-3.598-35.534-5.471-53.425-6.723c-22.912-1.596-45.915-1.911-68.895-2.541
			c-22.073-0.6-43.741-3.89-65.125-9.241c-17.921-4.482-35.789-9.137-53.71-13.634c-14.091-3.538-28.354-6.296-42.954-5.209
			c-5.891,0.442-12.007,1.431-17.441,3.62c-13.506,5.427-17.868,17.194-12.074,30.602c1.522,3.523,3.343,6.918,5.411,11.16
			c-3.508,0.435-5.921,0.847-8.357,1.027c-9.961,0.712-19.937,1.214-29.89,2.061c-12.015,1.019-23.617,3.882-34.755,8.582
			c-7.93,3.35-15.058,7.885-20.709,14.45c-13.124,15.26-11.033,33.728,5.127,45.6c7,5.142,14.93,7.937,23.534,8.942
			c2.219,0.255,4.377,0.907,7.667,1.619c-4.077,6.056-7.78,10.725-10.583,15.89c-4.677,8.612-5.007,17.149,2.353,24.801
			c1.634,1.701,4.212,2.9,3.53,6.498c-6.761,9.923-14.046,20.057-20.746,30.557c-35.534,55.703-54.242,116.428-54.152,182.722
			c0.045,30.123,3.373,59.826,11.16,88.944c5.734,21.428,8.305,43.134,6.768,65.274c-1.004,14.451-2.031,28.909-3.418,43.322
			c-1.596,16.669-7.083,31.899-16.032,46.245c-8.17,13.094-15.657,26.765-21.923,40.863c-16.189,36.441-23.984,75.048-26.817,114.66
			c-1.357,19.038-0.27,38.045,5.636,56.348c2.743,8.492,6.019,17.036,10.531,24.689c8.215,13.941,20.094,23.542,36.958,25.041
			c6.88,0.607,11.302,3.433,12.367,10.553c0.15,0.982,0.435,1.956,0.727,2.908c16.332,51.843,68.13,103.394,114.135,130.324
			c0.959,0.57,1.979,1.064,3.028,1.506c-11.145,8.762-15.372,25.146-10.051,38.989c5.644,14.683,20.372,23.564,35.594,21.721
			c10.381-1.267,20.829-2.046,31.209-3.328c7.398-0.922,15.005-1.506,22.028-3.77c5.524-1.769,10.456-2.518,15.942-0.802
			c3.32,1.042,6.783,1.844,10.231,2.226c14.698,1.597,27.972-0.787,37.198-13.941c0.555-0.795,1.492-1.312,2.061-1.791
			c14.158,0,28.114,0.165,42.07-0.045c14.481-0.21,28.969-0.555,43.427-1.259c13.888-0.674,27.754-1.896,41.14-2.841
			c11.385,15.313,23.647,20.484,48.583,9.474c10.201,3.605,21.091,5.539,32.101,3.852c7.308-1.124,14.271-4.774,21.571-5.569
			c7.255-0.787,14.788,1.274,22.125,0.862c10.763-0.615,19.307-5.824,22.89-16.399c3.763-11.108,0.008-20.686-8.499-28.339
			c-3.245-2.923-7.06-5.224-10.628-7.817c59.106-75.258,53.253-70.941,73.459-139.948c0.914-0.232,1.881-0.765,2.751-0.652
			c11.573,1.574,20.192-3.178,27.38-11.947c9.444-11.512,14.645-24.846,17.936-39.117c5.052-21.923,2.886-43.764-1.469-65.424
			c-8.11-40.331-21.323-78.976-38.877-116.196c-9.159-19.412-17.718-39.109-26.383-58.746c-2.189-4.962-3.725-10.201-5.584-15.365
			c2.518-3.253,4.759-5.891,6.716-8.724c10.493-15.2,21.503-30.078,31.179-45.78c9.271-15.065,14.818-31.629,14.203-49.76
			c-0.068-1.889,0.659-3.808,1.109-6.213c20.596-6.596,40.975-13.244,61.437-19.637c18.7-5.839,37.865-9.032,57.495-9.204
			c10.988-0.097,21.983-0.105,32.971-0.345c20.064-0.442,39.836-2.803,58.986-9.204c2.301-0.764,4.707-1.207,7.143-1.821
			c4.767,3.373,9.069,6.813,13.738,9.631c5.531,3.35,11.138,6.813,17.134,9.092c17.426,6.611,34.62,0.247,43.546-15.98
			c2.361-4.302,4.295-9.151,5.052-13.971C1092.667,457.582,1093.251,444.076,1089.818,430.772z M320.749,1134.402
			c-13.101,3.53-21.728,0.585-26.315-8.987c-4.287-8.942-1.596-21.481,5.809-27.125c8.087-6.154,16.617-4.782,25.843,3.965
			C324.287,1113.101,322.518,1123.751,320.749,1134.402z M367.024,1130.234c-2.234,0.997-4.639,1.941-7.045,2.188
			c-7.817,0.81-15.672,1.806-24.771-0.262c-2.376-11.985,0.839-21.548,7.458-29.98c5.944-7.578,15.95-8.627,23.909-3.103
			c4.182,2.893,7.158,6.708,8.784,11.602C378.251,1119.359,375.298,1126.562,367.024,1130.234z M411.694,1130.422
			c-7.383,1.304-14.788,1.402-22.275-1.911v-19.03c6.243-7.3,14.068-7.742,22.14-6.611c7.225,1.019,11.947,6.326,12.262,12.952
			C424.166,1123.122,419.504,1129.043,411.694,1130.422z M598.614,1124.516c-2.593,1.282-5.554,1.821-8.402,2.713
			c-3.013-0.727-5.989-1.094-8.679-2.174c-4.549-1.829-6.596-6.326-5.126-10.92c0.742-2.331,1.799-4.632,3.095-6.708
			c6.955-11.108,16.662-7.757,23.197-0.217C607.818,1113.131,605.772,1121.001,598.614,1124.516z M650.15,1123.556
			c-6.333,1.649-19.667,1.147-30.925-1.439c-0.48-4.122-0.944-7.532-1.252-10.95c-0.795-8.829,1.484-12.899,9.151-16.594
			c12.951-6.236,26.375-2.271,32.049,9.474C663.634,1113.281,660.081,1120.978,650.15,1123.556z M694.881,1099.34
			c6.386,7.877,3.74,17.291-5.936,20.034c-4.13,1.169-8.634,0.989-13.221,1.447c-1.911-10.006-3.38-17.748-4.932-25.895
			c1.507-3.56,5.029-3.987,8.574-3.65C685.557,1091.86,690.901,1094.445,694.881,1099.34z M778.436,540.387
			c-1.679,9.901-4.729,19.48-9.909,28.114c-6.671,11.123-13.708,22.036-20.859,32.858c-13.843,20.941-32.499,35.796-55.471,46.237
			c-53.927,24.509-110.785,36.658-169.374,41.418c-37.401,3.043-74.883,2.938-112.141-2.721
			c-23.662-3.598-47.616-5.929-69.607-16.594c-0.72-0.352-1.874,0.21-2.826,0.345c-3.238,5.749-3.583,8.042-0.105,9.931
			c6.094,3.298,12.389,6.543,18.993,8.499c32.761,9.699,66.511,13.739,100.486,15.11c46.612,1.874,92.856-2.361,138.524-11.835
			c45.203-9.384,88.899-23.115,128.675-47.384c1.207-0.742,2.773-0.884,4.879-1.521c1.087,2.256,2.181,4.355,3.125,6.521
			c9.549,21.976,18.663,44.139,28.706,65.882c15.133,32.783,26.787,66.706,34.777,101.873c4.565,20.064,7,40.361,4.474,60.972
			c-1.724,14.098-6.146,27.2-14.451,38.892c-4.992,7.016-11.145,11.333-22.26,9.332c0-4.46,0.3-8.425-0.052-12.33
			c-1.259-13.911-1.791-27.971-4.302-41.658c-6.978-38.06-20.911-73.894-36.913-108.956c-1.027-2.256-2.121-4.677-3.845-6.341
			c-1.199-1.154-3.598-1.761-5.322-1.536c-3.02,0.39-3.98,3.17-3.335,5.659c1.117,4.317,2.766,8.514,4.43,12.659
			c11.895,29.688,23.137,59.586,30.363,90.825c8.739,37.783,8.619,75.198-4.512,112.171c-9.811,27.619-23.857,52.653-42.932,74.973
			c-7.076,8.29-16.242,14.84-21.054,25.108c-0.697,1.477-3.11,2.286-4.872,3.103c-3.605,1.686-7.3,3.171-11.258,4.864
			c-19.315-10.785-36.396-5.689-51.888,8.545c-2.743-1.169-5.074-1.994-7.255-3.118c-10.516-5.419-19.352-2.076-27.305,5.284
			c-2.166,2.009-4.46,4.34-5.539,6.993c-2.923,7.188-8.477,8.649-15.462,9.376c-35.864,3.733-71.825,3.68-107.802,3.553
			c-2.376-0.007-4.744-0.63-6.91-0.944c-1.439-3.388-2.473-6.198-3.793-8.874c-4.587-9.324-12.277-14.211-22.485-15.177
			c-7.03-0.667-13.948-0.285-20.514,2.818c-2.616,1.244-5.397,2.129-8.2,3.208c-6.888-6.806-13.911-12.314-23.212-13.948
			c-10.193-1.799-18.235,3.388-25.581,8.432c-4.902-2.496-8.769-4.819-12.899-6.491c-5.209-2.113-10.306-2.743-15.23-2.009
			c-0.607-0.817-1.439-1.544-2.466-2.114c-0.869-0.48-1.836-0.765-2.721-1.214c-37.206-18.768-83.54-60.98-103.102-97.878
			c-9.684-18.281-15.477-37.82-16.512-58.671c-1.019-20.604,0.937-40.908,5.636-60.95c7.915-33.713,19.802-65.949,36.186-96.499
			c1.409-2.623,2.938-5.269,3.778-8.094c0.75-2.526-0.15-5.284-2.893-6.094c-1.582-0.465-4.28-0.105-5.277,0.982
			c-2.668,2.893-5.022,6.206-6.91,9.669c-27.44,50.315-45.135,103.297-43.899,161.429c0.053,2.398-0.517,4.812-0.787,7.158
			c-13.484-0.337-18.37-2.263-25.895-9.991c-6.048-6.213-9.961-13.708-12.839-21.773c-6.491-18.138-8.522-36.936-7.645-56.056
			c0.914-19.997,3.47-39.836,8.132-59.301c7.937-33.166,18.228-65.372,38.247-93.726c8.395-11.895,14.323-25.214,16.534-39.821
			c1.342-8.882,2.451-17.808,3.245-26.758c3.11-34.972,3.185-69.487-6.139-104.046c-11.168-41.388-12.562-83.877-6.528-126.404
			c6.198-43.599,21.091-84.192,43.951-121.75c9.339-15.342,19.682-30.078,29.808-44.925c7.18-10.531,6.588-12.629-5.501-15.665
			c-0.48-0.12-1.004-0.075-1.469-0.225c-3.133-0.974-4.707-4.017-3.673-7.06c2.159-6.371,6.663-11.07,11.295-15.65
			c3.905-3.853,8.147-7.398,11.767-11.497c3.882-4.407,1.619-10.501-4.182-11.22c-4.917-0.607-9.953-0.315-14.938-0.337
			c-8.072-0.038-16.017-0.922-23.257-4.737c-14.301-7.548-16.055-20.522-4.37-31.607c5.936-5.644,13.214-8.897,20.904-11.288
			c12.974-4.025,26.308-5.876,39.851-6.161c9.991-0.202,19.989-0.023,29.98-0.195c3.455-0.06,7.023-0.21,10.336-1.087
			c5.359-1.417,7.3-7.847,3.792-11.97c-1.596-1.881-3.733-3.29-5.554-4.992c-2.916-2.721-6.123-5.224-8.574-8.327
			c-7.03-8.882-4.797-15.86,5.824-19.217c8.829-2.796,17.876-2.571,26.69-0.727c18.063,3.793,36.156,7.645,53.949,12.494
			c35.841,9.781,72.125,15.657,109.353,16.152c23.46,0.307,46.949,1.237,70.326,3.088c29.133,2.301,56.993,9.998,83.06,23.489
			c2.286,1.184,4.092,3.313,7.3,5.989c-6.558,1.544-11.393,2.631-16.212,3.815c-28.781,7.113-56.018,18.146-81.719,32.881
			c-14.001,8.027-26.518,17.936-35.826,31.329c-22.013,31.689-40.893,65.132-55.336,100.959c-7.6,18.873-10.261,38.555-7.75,58.814
			c2.533,20.402,7.443,40.241,15.117,59.331c4.122,10.261,9.736,19.682,16.849,28.189c8.252,9.848,16.309,19.869,24.749,29.561
			c39.267,45.113,87.22,72.095,148.582,72.215c32.686,0.06,64.78-3.305,96.349-11.722c3.725-0.997,7.577-1.522,12.524-2.488
			C778.541,532.682,779.073,536.632,778.436,540.387z M987.743,476.11c-13.686,3.268-27.657,3.635-41.65,3.823
			c-14.975,0.195-29.965,0.15-44.896,1.034c-23.572,1.402-46.14,7.697-68.527,14.938c-25.618,8.29-51.281,16.549-77.267,23.565
			c-36.531,9.871-73.909,11.317-111.437,7.577c-18.018-1.791-35.234-6.963-51.259-15.567
			c-19.038-10.231-35.924-23.415-51.521-38.285c-2.159-2.054-4.047-4.415-5.884-6.768c-0.517-0.66-0.397-1.814-0.974-4.894
			c24.464,2.331,46.432-4.347,68.265-11.415c34.215-11.078,68.79-20.626,104.346-26.375c37.977-6.138,76.075-10.995,114.63-10.756
			c61.797,0.382,117.508,19.967,168.587,53.904c1.986,1.319,3.71,3.036,6.633,5.456C992.93,473.989,990.434,475.473,987.743,476.11z
			 M1078.531,465.519c-0.532,5.989-2.518,11.737-6.438,16.534c-5.936,7.248-13.716,10.598-22.605,7.57
			c-6.963-2.376-13.649-6.086-19.794-10.193c-12.022-8.049-23.362-17.134-35.384-25.191c-34.815-23.34-72.89-39.252-113.835-47.983
			c-25.978-5.546-52.301-7.248-78.923-5.891c-47.002,2.398-93.486,8.357-139.228,19.322c-19.39,4.639-38.367,10.98-57.592,16.317
			c-15.372,4.265-30.79,8.432-46.297,12.142c-8.829,2.113-17.771,1.529-26.698-0.697c-11.67-2.916-20.949-9.121-28.107-18.633
			c-6.963-9.264-12.494-19.39-15.53-30.55c-4.055-14.908-7.99-29.905-10.77-45.083c-2.826-15.44-1.064-30.91,3.897-45.832
			c2.518-7.57,5.329-15.073,8.582-22.343c12.247-27.417,27.207-53.342,43.659-78.436c8.642-13.191,19.592-23.969,33.143-31.959
			c29.928-17.658,61.849-30.22,96.147-36.254c7.33-1.289,14.908-1.169,18.978-1.462c26.068,0.36,48.013,5.276,69.847,10.523
			c27.717,6.663,54.684,15.77,80.542,27.799c23.534,10.943,46.889,22.268,70.169,33.743
			c75.153,37.033,126.359,96.117,158.206,172.799c6.693,16.114,13.146,32.341,17.014,49.49
			C1080.09,442.674,1079.55,454.089,1078.531,465.519z"/>
		<path fill="#1B2033" d="M320.374,372.092c-0.03-12.634,10.188-26.872,22.042-30.749c6.513-2.13,12.797-1.231,18.78,1.703
			c13.175,6.461,19.653,23.335,14.262,36.751c-6.25,15.557-22.626,23.77-37.373,18.744
			C326.804,394.697,320.405,385.142,320.374,372.092z"/>
	</g>
	<circle fill="#FFF3E2" cx="350.046" cy="364.118" r="12.483"/>
</g>
</svg>
