<?xml version="1.0" standalone="no"?><svg xmlns:xlink="http://www.w3.org/1999/xlink" xmlns="http://www.w3.org/2000/svg" viewBox="0 0 1000 666.6666666666665" preserveAspectRatio="xMaxYMax slice"><g transform="scale(1.3539128080151637)"><rect x="0" y="0" width="800.15" height="492.4" fill="#ffffff"/><rect x="0" y="0" width="61.55" height="61.55" fill="#ffffff"/><path d="M 30.78 61.56 A 30.78 30.78 0 0 1  61.56 30.78 L 30.78 61.56 A 30.78 30.78 0 0 0 61.56 30.78" fill="#a9afb6"/><path d="M 123.1 61.55 A 61.55 61.55 0 0 1  184.64999999999998 0 L 123.1 61.55 A 61.55 61.55 0 0 0 184.64999999999998 0" fill="#ffedda"/><rect x="307.75" y="0" width="61.55" height="61.55" fill="#ffffff"/><path d="M 307.75 61.56 A 30.78 30.78 0 0 1  338.53 30.78 L 307.75 61.56 A 30.78 30.78 0 0 0 338.53 30.78" fill="#ffe4c8"/><path d="M 338.53 30.78 A 30.78 30.78 0 0 1  369.30999999999995 61.56 L 338.53 30.78 A 30.78 30.78 0 0 0 369.30999999999995 61.56" fill="#ffc990"/><rect x="615.5" y="0" width="61.55" height="61.55" fill="#ffffff"/><path d="M 615.5 61.56 A 30.78 30.78 0 0 1  646.28 30.78 L 615.5 61.56 A 30.78 30.78 0 0 0 646.28 30.78" fill="#dee0e3"/><path d="M 646.28 30.78 A 30.78 30.78 0 0 1  677.06 61.56 L 646.28 30.78 A 30.78 30.78 0 0 0 677.06 61.56" fill="#d8dbde"/><path d="M 677.05 0 A 61.55 61.55 0 0 1  738.5999999999999 61.55 L 677.05 0 A 61.55 61.55 0 0 0 738.5999999999999 61.55" fill="#ffdfbc"/><rect x="0" y="61.55" width="61.55" height="61.55" fill="#ffffff"/><path d="M 0 92.33 A 30.78 30.78 0 0 1  30.78 61.55 L 0 92.33 A 30.78 30.78 0 0 0 30.78 61.55" fill="#bdc2c7"/><path d="M 0 123.1 A 30.78 30.78 0 0 1  30.78 92.32 L 0 123.1 A 30.78 30.78 0 0 0 30.78 92.32" fill="#fffcf9"/><path d="M 246.2 61.55 A 61.55 61.55 0 0 1  307.75 123.1 L 246.2 61.55 A 61.55 61.55 0 0 0 307.75 123.1" fill="#ffc88d"/><rect x="369.29999999999995" y="61.55" width="61.55" height="61.55" fill="#ffffff"/><rect x="492.4" y="61.55" width="61.55" height="61.55" fill="#ffffff"/><path d="M 492.4 92.33 A 30.78 30.78 0 0 1  523.18 61.55 L 492.4 92.33 A 30.78 30.78 0 0 0 523.18 61.55" fill="#ffeedd"/><path d="M 523.17 61.55 A 30.78 30.78 0 0 1  553.9499999999999 92.33 L 523.17 61.55 A 30.78 30.78 0 0 0 553.9499999999999 92.33" fill="#505c6a"/><rect x="677.05" y="61.55" width="61.55" height="61.55" fill="#ffffff"/><path d="M 677.05 123.1 A 30.78 30.78 0 0 1  707.8299999999999 92.32 L 677.05 123.1 A 30.78 30.78 0 0 0 707.8299999999999 92.32" fill="#fff1e2"/><path d="M 707.83 92.32 A 30.78 30.78 0 0 1  738.61 123.1 L 707.83 92.32 A 30.78 30.78 0 0 0 738.61 123.1" fill="#fcfcfc"/><path d="M 61.55 184.64999999999998 A 61.55 61.55 0 0 1  123.1 123.1 L 61.55 184.64999999999998 A 61.55 61.55 0 0 0 123.1 123.1" fill="#fff5eb"/><rect x="123.1" y="123.1" width="61.55" height="61.55" fill="#ffffff"/><path d="M 123.1 153.88 A 30.78 30.78 0 0 1  153.88 184.66 L 123.1 153.88 A 30.78 30.78 0 0 0 153.88 184.66" fill="#cfd2d6"/><rect x="184.64999999999998" y="123.1" width="61.55" height="61.55" fill="#ffffff"/><path d="M 215.43 123.1 A 30.78 30.78 0 0 1  246.21 153.88 L 215.43 123.1 A 30.78 30.78 0 0 0 246.21 153.88" fill="#ffd4a7"/><path d="M 184.65 184.66 A 30.78 30.78 0 0 1  215.43 153.88 L 184.65 184.66 A 30.78 30.78 0 0 0 215.43 153.88" fill="#eeeff1"/><path d="M 215.43 153.88 A 30.78 30.78 0 0 1  246.21 184.66 L 215.43 153.88 A 30.78 30.78 0 0 0 246.21 184.66" fill="#ffead3"/><path d="M 307.75 184.64999999999998 A 61.55 61.55 0 0 1  369.3 123.1 L 307.75 184.64999999999998 A 61.55 61.55 0 0 0 369.3 123.1" fill="#fff4e8"/><path d="M 492.4 123.1 A 61.55 61.55 0 0 1  553.9499999999999 184.64999999999998 L 492.4 123.1 A 61.55 61.55 0 0 0 553.9499999999999 184.64999999999998" fill="#e9ebec"/><path d="M 738.6 123.1 A 61.55 61.55 0 0 1  800.15 184.64999999999998 L 738.6 123.1 A 61.55 61.55 0 0 0 800.15 184.64999999999998" fill="#fff8f1"/><path d="M 123.1 184.65 A 61.55 61.55 0 0 1  184.64999999999998 246.2 L 123.1 184.65 A 61.55 61.55 0 0 0 184.64999999999998 246.2" fill="#8a929b"/><rect x="246.2" y="184.64999999999998" width="61.55" height="61.55" fill="#ffffff"/><path d="M 492.4 184.65 A 61.55 61.55 0 0 1  553.9499999999999 246.2 L 492.4 184.65 A 61.55 61.55 0 0 0 553.9499999999999 246.2" fill="#e8eaec"/><path d="M 553.95 246.2 A 61.55 61.55 0 0 1  615.5 184.65 L 553.95 246.2 A 61.55 61.55 0 0 0 615.5 184.65" fill="#a0a6ae"/><path d="M 615.5 184.65 A 61.55 61.55 0 0 1  677.05 246.2 L 615.5 184.65 A 61.55 61.55 0 0 0 677.05 246.2" fill="#ffdcb7"/><path d="M 738.6 246.2 A 61.55 61.55 0 0 1  800.15 184.65 L 738.6 246.2 A 61.55 61.55 0 0 0 800.15 184.65" fill="#ffd3a3"/><path d="M 123.1 307.75 A 61.55 61.55 0 0 1  184.64999999999998 246.2 L 123.1 307.75 A 61.55 61.55 0 0 0 184.64999999999998 246.2" fill="#ffc384"/><rect x="184.64999999999998" y="246.2" width="61.55" height="61.55" fill="#ffffff"/><path d="M 215.43 246.2 A 30.78 30.78 0 0 1  246.21 276.98 L 215.43 246.2 A 30.78 30.78 0 0 0 246.21 276.98" fill="#a0a7af"/><rect x="369.29999999999995" y="246.2" width="61.55" height="61.55" fill="#ffffff"/><path d="M 430.85 307.75 A 61.55 61.55 0 0 1  492.40000000000003 246.2 L 430.85 307.75 A 61.55 61.55 0 0 0 492.40000000000003 246.2" fill="#808993"/><rect x="492.4" y="246.2" width="61.55" height="61.55" fill="#ffffff"/><rect x="553.9499999999999" y="246.2" width="61.55" height="61.55" fill="#ffffff"/><path d="M 584.72 276.98 A 30.78 30.78 0 0 1  615.5 246.2 L 584.72 276.98 A 30.78 30.78 0 0 0 615.5 246.2" fill="#535f6d"/><path d="M 615.5 307.75 A 61.55 61.55 0 0 1  677.05 246.2 L 615.5 307.75 A 61.55 61.55 0 0 0 677.05 246.2" fill="#67727e"/><path d="M 184.65 369.3 A 61.55 61.55 0 0 1  246.2 307.75 L 184.65 369.3 A 61.55 61.55 0 0 0 246.2 307.75" fill="#ebedee"/><path d="M 246.2 307.75 A 61.55 61.55 0 0 1  307.75 369.3 L 246.2 307.75 A 61.55 61.55 0 0 0 307.75 369.3" fill="#43505f"/><path d="M 615.5 369.3 A 61.55 61.55 0 0 1  677.05 307.75 L 615.5 369.3 A 61.55 61.55 0 0 0 677.05 307.75" fill="#ffca91"/><rect x="123.1" y="369.29999999999995" width="61.55" height="61.55" fill="#ffffff"/><path d="M 153.88 369.3 A 30.78 30.78 0 0 1  184.66 400.08000000000004 L 153.88 369.3 A 30.78 30.78 0 0 0 184.66 400.08000000000004" fill="#ffe5c9"/><rect x="307.75" y="369.29999999999995" width="61.55" height="61.55" fill="#ffffff"/><path d="M 338.53 369.3 A 30.78 30.78 0 0 1  369.30999999999995 400.08000000000004 L 338.53 369.3 A 30.78 30.78 0 0 0 369.30999999999995 400.08000000000004" fill="#d8dbde"/><path d="M 338.53 430.85 A 30.78 30.78 0 0 1  369.30999999999995 400.07 L 338.53 430.85 A 30.78 30.78 0 0 0 369.30999999999995 400.07" fill="#bbc0c5"/><rect x="369.29999999999995" y="369.29999999999995" width="61.55" height="61.55" fill="#ffffff"/><path d="M 369.3 369.3 A 30.78 30.78 0 0 1  400.08000000000004 400.08000000000004 L 369.3 369.3 A 30.78 30.78 0 0 0 400.08000000000004 400.08000000000004" fill="#ffddba"/><rect x="430.84999999999997" y="369.29999999999995" width="61.55" height="61.55" fill="#ffffff"/><path d="M 430.85 400.08000000000004 A 30.78 30.78 0 0 1  461.63 369.3 L 430.85 400.08000000000004 A 30.78 30.78 0 0 0 461.63 369.3" fill="#ffebd6"/><path d="M 430.85 430.85 A 30.78 30.78 0 0 1  461.63 400.07 L 430.85 430.85 A 30.78 30.78 0 0 0 461.63 400.07" fill="#465261"/><path d="M 461.62 430.85 A 30.78 30.78 0 0 1  492.4 400.07 L 461.62 430.85 A 30.78 30.78 0 0 0 492.4 400.07" fill="#818a94"/><path d="M 553.95 369.3 A 61.55 61.55 0 0 1  615.5 430.85 L 553.95 369.3 A 61.55 61.55 0 0 0 615.5 430.85" fill="#596572"/><rect x="738.5999999999999" y="369.29999999999995" width="61.55" height="61.55" fill="#ffffff"/><path d="M 769.37 430.85 A 30.78 30.78 0 0 1  800.15 400.07 L 769.37 430.85 A 30.78 30.78 0 0 0 800.15 400.07" fill="#fffefd"/><rect x="123.1" y="430.84999999999997" width="61.55" height="61.55" fill="#ffffff"/><path d="M 123.1 461.63 A 30.78 30.78 0 0 1  153.88 430.85 L 123.1 461.63 A 30.78 30.78 0 0 0 153.88 430.85" fill="#66717d"/><path d="M 123.1 461.62 A 30.78 30.78 0 0 1  153.88 492.4 L 123.1 461.62 A 30.78 30.78 0 0 0 153.88 492.4" fill="#ffce9a"/><path d="M 153.88 461.62 A 30.78 30.78 0 0 1  184.66 492.4 L 153.88 461.62 A 30.78 30.78 0 0 0 184.66 492.4" fill="#384656"/><path d="M 184.65 430.85 A 61.55 61.55 0 0 1  246.2 492.40000000000003 L 184.65 430.85 A 61.55 61.55 0 0 0 246.2 492.40000000000003" fill="#6f7985"/><rect x="307.75" y="430.84999999999997" width="61.55" height="61.55" fill="#ffffff"/><path d="M 369.3 430.85 A 61.55 61.55 0 0 1  430.85 492.40000000000003 L 369.3 430.85 A 61.55 61.55 0 0 0 430.85 492.40000000000003" fill="#ffdab2"/><rect x="430.84999999999997" y="430.84999999999997" width="61.55" height="61.55" fill="#ffffff"/><path d="M 430.85 430.85 A 30.78 30.78 0 0 1  461.63 461.63 L 430.85 430.85 A 30.78 30.78 0 0 0 461.63 461.63" fill="#cfd2d6"/><path d="M 430.85 492.4 A 30.78 30.78 0 0 1  461.63 461.62 L 430.85 492.4 A 30.78 30.78 0 0 0 461.63 461.62" fill="#ffc180"/></g></svg>