<svg version="1.1"
      xmlns="http://www.w3.org/2000/svg"
      xmlns:xlink="http://www.w3.org/1999/xlink"  id="snapshot-43903" width="250" height="250" viewBox="0 0 250 250"><desc>This image was made on Patterninja.com</desc><defs>
<!-- image tmp-2 -->
<g id="transformed-tmp-2" data-image="tmp-2" transform="translate(103, 37) rotate(0, 37, 45)"><g><svg version="1.1" width="74px" height="90px" viewBox="0 0 74 90"><g id="original-tmp-2"><svg version="1.1" xmlns="http://www.w3.org/2000/svg" viewBox="0 0 40 48" xmlns:xlink="http://www.w3.org/1999/xlink"  preserveAspectRatio="xMidYMid meet">
  <path d="M21.407 1.667c-2.959 1.247-4.003 5.474-4.003 5.474s3.754 2.203 6.713.956c2.959-1.247 4.003-5.473 4.003-5.473S24.366.42 21.407 1.667" fill-rule="evenodd" fill="rgba(255, 255, 255, 1)" stroke="none"/>
  <path d="M24.287 4.547c-2.959 1.247-4.003 5.473-4.003 5.473s3.754 2.204 6.713.957C29.956 9.73 31 5.503 31 5.503s-3.754-2.203-6.713-.956" fill-rule="evenodd" fill="rgba(45, 176, 141, 1)" stroke="none"/>
  <path d="M18.49 6.683c1.1.507 3.428 1.364 5.278.585 1.849-.78 2.861-3.044 3.266-4.187-1.1-.507-3.428-1.363-5.277-.585-1.85.78-2.861 3.045-3.267 4.187zm3.604 2.695c-2.618 0-5.016-1.385-5.146-1.461a.9.9 0 0 1-.418-.992c.047-.191 1.191-4.681 4.528-6.087 3.334-1.405 7.349.91 7.518 1.009a.902.902 0 0 1 .419.993c-.048.19-1.192 4.68-4.529 6.086-.772.326-1.582.452-2.372.452z" fill-rule="evenodd" fill="rgba(103, 26, 29, 1)" stroke="none"/>
  <path d="M18.335 44.315a.982.982 0 0 0 1.103 0c3.345-2.266 15.165-2.791 17.169-15.346 2.271-14.225-9.812-21.992-17.721-14.992-7.908-7-19.991.767-17.72 14.992C3.17 41.524 14.99 42.049 18.335 44.315" fill-rule="evenodd" fill="rgba(255, 255, 255, 1)" stroke="none"/>
  <path d="M21.214 47.196a.987.987 0 0 0 1.104 0c3.345-2.267 15.165-2.792 17.169-15.347 2.271-14.225-9.812-21.992-17.721-14.992-7.908-7-19.991.767-17.72 14.992C6.05 44.404 17.87 44.929 21.214 47.196" fill-rule="evenodd" fill="rgba(241, 169, 109, 1)" stroke="none"/>
  <path d="M18.839 43.57c.029.02.067.02.095 0 .877-.594 2.185-1.051 3.699-1.58 4.91-1.716 11.633-4.067 13.086-13.163 1.315-8.244-2.397-13.464-5.976-15.43-3.415-1.876-7.252-1.407-10.26 1.254a.899.899 0 0 1-1.193 0c-3.007-2.662-6.843-3.131-10.26-1.254-3.579 1.966-7.291 7.186-5.976 15.431 1.453 9.095 8.176 11.446 13.085 13.162 1.515.529 2.823.986 3.7 1.58zm.047 1.817c-.367 0-.735-.109-1.056-.326v-.001c-.683-.462-1.889-.883-3.284-1.371C9.815 42.035 1.898 39.268.277 29.111c-1.205-7.545 1.499-14.333 6.886-17.292 3.829-2.102 8.254-1.71 11.723.989 3.468-2.699 7.896-3.092 11.724-.989 5.387 2.959 8.09 9.747 6.886 17.292-1.621 10.157-9.539 12.924-14.269 14.578-1.395.488-2.601.909-3.284 1.371a1.878 1.878 0 0 1-1.057.327z" fill-rule="evenodd" fill="rgba(103, 26, 29, 1)" stroke="none"/>
  <path d="M18.886 36.745c-3.14 0-7.123-4.153-7.123-8.82 0-2.606.608-4.789 1.759-6.313a.9.9 0 1 1 1.437 1.084c-.913 1.21-1.396 3.018-1.396 5.229 0 4.056 3.501 7.02 5.323 7.02 1.823 0 5.324-2.964 5.324-7.02 0-2.622-.691-7.02-5.324-7.02a.9.9 0 0 1 0-1.8c4.461 0 7.124 3.297 7.124 8.82 0 4.667-3.983 8.82-7.124 8.82" fill-rule="evenodd" fill="rgba(103, 26, 29, 1)" stroke="none"/>
  <path d="M20.385 30.855a.9.9 0 0 1-.869-1.134 6.949 6.949 0 0 0 .239-1.796c0-1.058-.111-2.032-.331-2.897a.9.9 0 1 1 1.743-.444c.258 1.009.388 2.133.388 3.341 0 .755-.101 1.517-.301 2.263a.901.901 0 0 1-.869.667" fill-rule="evenodd" fill="rgba(103, 26, 29, 1)" stroke="none"/>
  <path d="M12.367 2.485a.895.895 0 0 1-.495-.149 6.5 6.5 0 0 0-.433-.262.9.9 0 0 1 .866-1.578c.179.098.366.211.558.338a.9.9 0 0 1-.496 1.651" fill-rule="evenodd" fill="rgba(103, 26, 29, 1)" stroke="none"/>
  <path d="M18.945 14.877a.9.9 0 0 1-.9-.9c0-4.828-2.79-8.407-3.99-9.722a.9.9 0 0 1 1.33-1.214c1.341 1.47 4.46 5.478 4.46 10.936a.9.9 0 0 1-.9.9" fill-rule="evenodd" fill="rgba(103, 26, 29, 1)" stroke="none"/>
</svg>
</g></svg></g></g>
<!-- /image tmp-2 -->

<!-- image 13456 -->
<g id="transformed-13456" data-image="13456" transform="translate(141.7451299933349, 111.74512999333488) rotate(29, 96.25487000666509, 96.25487000666512)"><g><svg version="1.1" width="192.50974001333017px" height="192.50974001333023px" viewBox="0 0 192.50974001333017 192.50974001333023"><g id="original-13456"><svg xmlns="http://www.w3.org/2000/svg" viewBox="0 0 1200 1200" xmlns:xlink="http://www.w3.org/1999/xlink" version="1.1" preserveAspectRatio="xMidYMid meet">
  <path d="M800.786 878.093c-1.724 14.098-6.146 27.2-14.451 38.892-4.992 7.016-11.145 11.333-22.26 9.332 0-4.46.3-8.425-.052-12.33-1.259-13.911-1.791-27.971-4.302-41.658-6.978-38.06-20.911-73.894-36.913-108.956-1.027-2.256-2.121-4.677-3.845-6.341-1.199-1.154-3.598-1.761-5.322-1.536-3.02.39-3.98 3.17-3.335 5.659 1.117 4.317 2.766 8.514 4.43 12.659 11.895 29.688 23.137 59.586 30.363 90.825 8.739 37.783 8.619 75.198-4.512 112.171-9.811 27.619-23.857 52.653-42.932 74.973-7.076 8.29-16.242 14.84-21.054 25.108-.697 1.477-3.11 2.286-4.872 3.103-3.605 1.686-7.3 3.171-11.258 4.864-19.315-10.785-36.396-5.689-51.888 8.545-2.743-1.169-5.074-1.994-7.255-3.118-10.516-5.419-19.352-2.076-27.305 5.284-2.166 2.009-4.46 4.34-5.539 6.993-2.923 7.188-8.477 8.649-15.462 9.376-35.864 3.733-71.825 3.68-107.802 3.553-2.376-.007-4.744-.63-6.91-.944-1.439-3.388-2.473-6.198-3.793-8.874-4.587-9.324-12.277-14.211-22.485-15.177-7.03-.667-13.948-.285-20.514 2.818-2.616 1.244-5.397 2.129-8.2 3.208-6.888-6.806-13.911-12.314-23.212-13.948-10.193-1.799-18.235 3.388-25.581 8.432-4.902-2.496-8.769-4.819-12.899-6.491-5.209-2.113-10.306-2.743-15.23-2.009-.607-.817-1.439-1.544-2.466-2.114-.869-.48-1.836-.765-2.721-1.214-37.206-18.768-83.54-60.98-103.102-97.878-9.684-18.281-15.477-37.82-16.512-58.671-1.019-20.604.937-40.908 5.636-60.95 7.915-33.713 19.802-65.949 36.186-96.499 1.409-2.623 2.938-5.269 3.778-8.094.75-2.526-.15-5.284-2.893-6.094-1.582-.465-4.28-.105-5.277.982a48.916 48.916 0 0 0-6.91 9.669c-27.44 50.315-45.135 103.297-43.899 161.429.053 2.398-.517 4.812-.787 7.158-13.484-.337-18.37-2.263-25.895-9.991-6.048-6.213-9.961-13.708-12.839-21.773-6.491-18.138-8.522-36.936-7.645-56.056.914-19.997 3.47-39.836 8.132-59.301 7.937-33.166 18.228-65.372 38.247-93.726 8.395-11.895 14.323-25.214 16.534-39.821 1.342-8.882 2.451-17.808 3.245-26.758 3.11-34.972 3.185-69.487-6.139-104.046-11.168-41.388-12.562-83.877-6.528-126.404 6.198-43.599 21.091-84.192 43.951-121.75 9.339-15.342 19.682-30.078 29.808-44.925 7.18-10.531 6.588-12.629-5.501-15.665-.48-.12-1.004-.075-1.469-.225-3.133-.974-4.707-4.017-3.673-7.06 2.159-6.371 6.663-11.07 11.295-15.65 3.905-3.853 8.147-7.398 11.767-11.497 3.882-4.407 1.619-10.501-4.182-11.22-4.917-.607-9.953-.315-14.938-.337-8.072-.038-16.017-.922-23.257-4.737-14.301-7.548-16.055-20.522-4.37-31.607 5.936-5.644 13.214-8.897 20.904-11.288 12.974-4.025 26.308-5.876 39.851-6.161 9.991-.202 19.989-.023 29.98-.195 3.455-.06 7.023-.21 10.336-1.087 5.359-1.417 7.3-7.847 3.792-11.97-1.596-1.881-3.733-3.29-5.554-4.992-2.916-2.721-6.123-5.224-8.574-8.327-7.03-8.882-4.797-15.86 5.824-19.217 8.829-2.796 17.876-2.571 26.69-.727 18.063 3.793 36.156 7.645 53.949 12.494 35.841 9.781 72.125 15.657 109.353 16.152 23.46.307 46.949 1.237 70.326 3.088 29.133 2.301 56.993 9.998 83.06 23.489 2.286 1.184 4.092 3.313 7.3 5.989-6.558 1.544-11.393 2.631-16.212 3.815-28.781 7.113-56.018 18.146-81.719 32.881-14.001 8.027-26.518 17.936-35.826 31.329-22.013 31.689-40.893 65.132-55.336 100.959-7.6 18.873-10.261 38.555-7.75 58.814 2.533 20.402 7.443 40.241 15.117 59.331 4.122 10.261 9.736 19.682 16.849 28.189 8.252 9.848 16.309 19.869 24.749 29.561 39.267 45.113 87.22 72.095 148.582 72.215 32.686.06 64.78-3.305 96.349-11.722 3.725-.997 7.577-1.522 12.524-2.488 0 4.872.532 8.822-.105 12.577-1.679 9.901-4.729 19.48-9.909 28.114-6.671 11.123-13.708 22.036-20.859 32.858-13.843 20.941-32.499 35.796-55.471 46.237-53.927 24.509-110.785 36.658-169.374 41.418-37.401 3.043-74.883 2.938-112.141-2.721-23.662-3.598-47.616-5.929-69.607-16.594-.72-.352-1.874.21-2.826.345-3.238 5.749-3.583 8.042-.105 9.931 6.094 3.298 12.389 6.543 18.993 8.499 32.761 9.699 66.511 13.739 100.486 15.11 46.612 1.874 92.856-2.361 138.524-11.835 45.203-9.384 88.899-23.115 128.675-47.384 1.207-.742 2.773-.884 4.879-1.521 1.087 2.256 2.181 4.355 3.125 6.521 9.549 21.976 18.663 44.139 28.706 65.882 15.133 32.783 26.787 66.706 34.777 101.873 4.572 20.062 7.008 40.358 4.482 60.97z" fill="rgba(54, 68, 84, 1)" stroke="none"/>
  <path d="M681.736 136.9c26.065.358 48.008 5.273 69.842 10.521 27.72 6.663 54.683 15.767 80.548 27.797 23.529 10.944 46.886 22.271 70.164 33.743 75.157 37.035 126.364 96.122 158.205 172.802 6.692 16.114 13.151 32.341 17.019 49.487 2.577 11.426 2.037 22.841 1.018 34.268-.534 5.989-2.518 11.741-6.442 16.535-5.933 7.248-13.711 10.6-22.602 7.569-6.96-2.371-13.651-6.08-19.793-10.192-12.026-8.05-23.363-17.13-35.383-25.189-34.814-23.343-72.895-39.252-113.837-47.987-25.975-5.542-52.304-7.243-78.925-5.884-46.998 2.399-93.483 8.355-139.23 19.317-19.387 4.645-38.363 10.985-57.591 16.319-15.374 4.266-30.785 8.431-46.299 12.144-8.829 2.113-17.768 1.529-26.695-.7-11.672-2.915-20.949-9.118-28.103-18.635-6.964-9.263-12.499-19.387-15.533-30.543-4.053-14.909-7.988-29.908-10.768-45.089-2.826-15.437-1.065-30.905 3.898-45.833 2.515-7.564 5.328-15.066 8.577-22.341 12.245-27.418 27.211-53.34 43.661-78.436 8.643-13.187 19.594-23.969 33.142-31.959 29.931-17.653 61.85-30.22 96.144-36.252 7.331-1.292 14.909-1.173 18.983-1.462z" fill="rgba(255, 188, 117, 1)" stroke="none"/>
  <path d="M534.325 461.533c24.468 2.333 46.437-4.35 68.271-11.417 34.216-11.074 68.788-20.629 104.347-26.375 37.975-6.137 76.072-10.994 114.63-10.755 61.796.384 117.501 19.968 168.584 53.905 1.986 1.32 3.709 3.034 6.634 5.458-3.865 1.638-6.355 3.12-9.047 3.763-13.689 3.263-27.661 3.636-41.656 3.82-14.968.197-29.961.149-44.894 1.035-23.572 1.401-46.136 7.695-68.528 14.94-25.617 8.288-51.281 16.547-77.262 23.564-36.536 9.868-73.911 11.315-111.443 7.575-18.012-1.794-35.233-6.966-51.253-15.57-19.039-10.226-35.926-23.412-51.527-38.283-2.156-2.055-4.045-4.411-5.881-6.765-.514-.661-.398-1.814-.975-4.895z" fill="rgba(230, 140, 91, 1)" stroke="none"/>
  <path d="M335.21 1132.164c-2.378-11.987.837-21.555 7.455-29.987 5.943-7.572 15.952-8.623 23.91-3.104 4.18 2.899 7.154 6.715 8.785 11.607 2.893 8.679-.062 15.878-8.334 19.556-2.24.996-4.645 1.938-7.049 2.187-7.815.811-15.672 1.809-24.767-.259z" fill="rgba(230, 140, 91, 1)" stroke="none"/>
  <path d="M619.223 1122.12c-.477-4.127-.946-7.533-1.251-10.953-.789-8.829 1.487-12.902 9.151-16.593 12.952-6.238 26.378-2.27 32.048 9.47 4.462 9.24.908 16.931-9.019 19.514-6.334 1.649-19.671 1.147-30.929-1.438z" fill="rgba(230, 140, 91, 1)" stroke="none"/>
  <path d="M326.089 1102.257l-5.34 32.144c-13.1 3.533-21.728.588-26.317-8.987-4.285-8.941-1.598-21.481 5.813-27.121 8.086-6.154 16.616-4.783 25.844 3.964z" fill="rgba(230, 140, 91, 1)" stroke="none"/>
  <path d="M389.42 1128.509v-19.028c6.241-7.303 14.069-7.746 22.141-6.611 7.221 1.016 11.948 6.329 12.259 12.95.343 7.303-4.317 13.225-12.129 14.604-7.376 1.302-14.784 1.397-22.271-1.915z" fill="rgba(230, 140, 91, 1)" stroke="none"/>
  <path d="M675.72 1120.823l-4.93-25.895c1.507-3.565 5.027-3.988 8.575-3.654 6.194.583 11.538 3.17 15.512 8.067 6.391 7.875 3.742 17.291-5.935 20.03-4.124 1.169-8.63.992-13.222 1.452z" fill="rgba(230, 140, 91, 1)" stroke="none"/>
  <path d="M590.213 1127.229c-3.012-.728-5.989-1.096-8.681-2.176-4.548-1.824-6.594-6.325-5.128-10.921a29.812 29.812 0 0 1 3.1-6.702c6.956-11.108 16.662-7.763 23.194-.218 5.12 5.916 3.076 13.788-4.081 17.306-2.6 1.278-5.561 1.819-8.404 2.711z" fill="rgba(230, 140, 91, 1)" stroke="none"/>
  <path d="M476.946 295.679c0 6.364.01 13.331-.003 20.299-.023 13.483-.073 26.966-.085 40.449-.025 27.407 8.38 51.965 25.155 73.607 16.514 21.305 33.648 42.045 53.239 60.695 18.346 17.466 38.708 31.137 63.604 35.204 30.333 4.955 60.737 7.06 91.114 6.257 11.358-.3 28.511-5.949 39.887-7.039 13.319-1.276 22.243-8.853 35.454-1.594.607 2.968 1.34 6.311 1.958 9.675.266 1.445.953 3.345.331 4.34-6.757 10.809-6.873 23.774-11.828 35.257-8.018 18.582-18.891 35.134-32.44 49.896-8.423 9.177-17.934 17.352-26.88 26.056-2.468 2.402-6.311 4.87-6.677 7.679-1.13 8.675-6.404 15.479-9.104 23.399-5.303 15.558-10.495 31.287-17.526 46.093-11.262 23.712-27.153 43.814-49.125 59.158-22.575 15.765-47.263 25.513-74.121 30.254-27.737 4.897-55.49 4.021-83.386.712-27.855-3.304-54.907-9.536-81.402-18.592-40.506-13.845-75.675-35.92-103.831-68.299-20.528-23.607-36.409-50.022-42.858-81.124-2.216-10.687-3.701-21.599-4.516-32.484-.933-12.465-2.218-24.848-5.69-36.827-2.764-9.535-6.012-19-9.939-28.111-8.291-19.234-17.426-38.103-25.742-57.327-12.905-29.831-18.356-61.098-15.606-93.498 1.82-21.448 7.405-42.124 15.416-62.142 8.778-21.934 20.93-41.931 34.958-60.797 10.47-14.081 22.733-26.454 37.316-36.418 17.395-11.886 36.817-17.56 57.625-18.456 12.46-.537 24.995-.659 37.441.031 37.531 2.082 68.159 17.37 90.023 48.637 5.413 7.743 10.726 15.556 17.238 25.01z" fill="rgba(255, 231, 203, 1)" stroke="none"/>
  <path d="M832.84 406.238c-5.332-10.128-4.957-20.221-4.094-30.128 2.723-31.272 10.729-61.046 29.219-86.878 19.467-27.196 44.294-47.085 78.291-53.567 12.468-2.377 23.294-.839 33.81 6.916 10.975 8.094 20.502 17.388 29.004 27.915 6.265 7.758 12.824 15.284 18.959 23.142 17.277 22.133 31.604 46.016 42.358 72.011 3.813 9.217 7.788 18.378 12.024 27.408 6.209 13.235 9.357 27.39 12.248 41.525 3.079 15.053.419 29.899-5.142 44.033-5.459 13.875-16.374 19.027-31.286 16.147-15.155-2.927-27.642-11.129-39.906-19.733-16.353-11.473-32.907-22.496-50.728-31.707-25.089-12.969-51.745-20.712-79.192-26.43-10.708-2.231-21.238-5.3-31.877-7.873-4.295-1.038-8.665-1.771-13.688-2.781z" fill="rgba(54, 68, 84, 1)" stroke="none"/>
  <path d="M298.374 499.405a56.752 56.752 0 0 1-1.855-.018c-8.769-.237-17.91-3.647-22.929-10.841-9.422-13.504 3.082-25.425 12.937-33.689 12.332-10.341 27.497-17.104 43.069-20.855 5.854-1.41 12.085-2.339 17.832-.541 9.511 2.975 15.583 13.437 14.883 23.377-1.929 27.41-40.158 42.403-63.937 42.567z" fill="rgba(237, 147, 161, 1)" stroke="none"/>
  <path d="M1089.818 430.772c-2.496-9.661-4.932-19.382-8.155-28.811-31.12-90.893-86.538-161.249-173.706-204.548-21.466-10.658-42.917-21.376-64.712-31.344-49.872-22.8-101.813-38.262-156.789-42.272-3.658-.262-6.513-1.439-9.436-3.74-21.638-17.059-46.694-26.997-73.309-32.469-17.538-3.598-35.534-5.471-53.425-6.723-22.912-1.596-45.915-1.911-68.895-2.541-22.073-.6-43.741-3.89-65.125-9.241-17.921-4.482-35.789-9.137-53.71-13.634-14.091-3.538-28.354-6.296-42.954-5.209-5.891.442-12.007 1.431-17.441 3.62-13.506 5.427-17.868 17.194-12.074 30.602 1.522 3.523 3.343 6.918 5.411 11.16-3.508.435-5.921.847-8.357 1.027-9.961.712-19.937 1.214-29.89 2.061a113.605 113.605 0 0 0-34.755 8.582c-7.93 3.35-15.058 7.885-20.709 14.45-13.124 15.26-11.033 33.728 5.127 45.6 7 5.142 14.93 7.937 23.534 8.942 2.219.255 4.377.907 7.667 1.619-4.077 6.056-7.78 10.725-10.583 15.89-4.677 8.612-5.007 17.149 2.353 24.801 1.634 1.701 4.212 2.9 3.53 6.498-6.761 9.923-14.046 20.057-20.746 30.557-35.534 55.703-54.242 116.428-54.152 182.722.045 30.123 3.373 59.826 11.16 88.944 5.734 21.428 8.305 43.134 6.768 65.274-1.004 14.451-2.031 28.909-3.418 43.322-1.596 16.669-7.083 31.899-16.032 46.245-8.17 13.094-15.657 26.765-21.923 40.863-16.189 36.441-23.984 75.048-26.817 114.66-1.357 19.038-.27 38.045 5.636 56.348 2.743 8.492 6.019 17.036 10.531 24.689 8.215 13.941 20.094 23.542 36.958 25.041 6.88.607 11.302 3.433 12.367 10.553.15.982.435 1.956.727 2.908 16.332 51.843 68.13 103.394 114.135 130.324.959.57 1.979 1.064 3.028 1.506-11.145 8.762-15.372 25.146-10.051 38.989 5.644 14.683 20.372 23.564 35.594 21.721 10.381-1.267 20.829-2.046 31.209-3.328 7.398-.922 15.005-1.506 22.028-3.77 5.524-1.769 10.456-2.518 15.942-.802 3.32 1.042 6.783 1.844 10.231 2.226 14.698 1.597 27.972-.787 37.198-13.941.555-.795 1.492-1.312 2.061-1.791 14.158 0 28.114.165 42.07-.045 14.481-.21 28.969-.555 43.427-1.259 13.888-.674 27.754-1.896 41.14-2.841 11.385 15.313 23.647 20.484 48.583 9.474 10.201 3.605 21.091 5.539 32.101 3.852 7.308-1.124 14.271-4.774 21.571-5.569 7.255-.787 14.788 1.274 22.125.862 10.763-.615 19.307-5.824 22.89-16.399 3.763-11.108.008-20.686-8.499-28.339-3.245-2.923-7.06-5.224-10.628-7.817 59.106-75.258 53.253-70.941 73.459-139.948.914-.232 1.881-.765 2.751-.652 11.573 1.574 20.192-3.178 27.38-11.947 9.444-11.512 14.645-24.846 17.936-39.117 5.052-21.923 2.886-43.764-1.469-65.424-8.11-40.331-21.323-78.976-38.877-116.196-9.159-19.412-17.718-39.109-26.383-58.746-2.189-4.962-3.725-10.201-5.584-15.365 2.518-3.253 4.759-5.891 6.716-8.724 10.493-15.2 21.503-30.078 31.179-45.78 9.271-15.065 14.818-31.629 14.203-49.76-.068-1.889.659-3.808 1.109-6.213 20.596-6.596 40.975-13.244 61.437-19.637 18.7-5.839 37.865-9.032 57.495-9.204 10.988-.097 21.983-.105 32.971-.345 20.064-.442 39.836-2.803 58.986-9.204 2.301-.764 4.707-1.207 7.143-1.821 4.767 3.373 9.069 6.813 13.738 9.631 5.531 3.35 11.138 6.813 17.134 9.092 17.426 6.611 34.62.247 43.546-15.98 2.361-4.302 4.295-9.151 5.052-13.971 2.116-13.378 2.7-26.884-.733-40.188zm-769.069 703.63c-13.101 3.53-21.728.585-26.315-8.987-4.287-8.942-1.596-21.481 5.809-27.125 8.087-6.154 16.617-4.782 25.843 3.965-1.799 10.846-3.568 21.496-5.337 32.147zm46.275-4.168c-2.234.997-4.639 1.941-7.045 2.188-7.817.81-15.672 1.806-24.771-.262-2.376-11.985.839-21.548 7.458-29.98 5.944-7.578 15.95-8.627 23.909-3.103 4.182 2.893 7.158 6.708 8.784 11.602 2.892 8.68-.061 15.883-8.335 19.555zm44.67.188c-7.383 1.304-14.788 1.402-22.275-1.911v-19.03c6.243-7.3 14.068-7.742 22.14-6.611 7.225 1.019 11.947 6.326 12.262 12.952.345 7.3-4.317 13.221-12.127 14.6zm186.92-5.906c-2.593 1.282-5.554 1.821-8.402 2.713-3.013-.727-5.989-1.094-8.679-2.174-4.549-1.829-6.596-6.326-5.126-10.92a29.944 29.944 0 0 1 3.095-6.708c6.955-11.108 16.662-7.757 23.197-.217 5.119 5.921 3.073 13.791-4.085 17.306zm51.536-.96c-6.333 1.649-19.667 1.147-30.925-1.439-.48-4.122-.944-7.532-1.252-10.95-.795-8.829 1.484-12.899 9.151-16.594 12.951-6.236 26.375-2.271 32.049 9.474 4.461 9.234.908 16.931-9.023 19.509zm44.731-24.216c6.386 7.877 3.74 17.291-5.936 20.034-4.13 1.169-8.634.989-13.221 1.447-1.911-10.006-3.38-17.748-4.932-25.895 1.507-3.56 5.029-3.987 8.574-3.65 6.191.584 11.535 3.169 15.515 8.064zm83.555-558.953c-1.679 9.901-4.729 19.48-9.909 28.114-6.671 11.123-13.708 22.036-20.859 32.858-13.843 20.941-32.499 35.796-55.471 46.237-53.927 24.509-110.785 36.658-169.374 41.418-37.401 3.043-74.883 2.938-112.141-2.721-23.662-3.598-47.616-5.929-69.607-16.594-.72-.352-1.874.21-2.826.345-3.238 5.749-3.583 8.042-.105 9.931 6.094 3.298 12.389 6.543 18.993 8.499 32.761 9.699 66.511 13.739 100.486 15.11 46.612 1.874 92.856-2.361 138.524-11.835 45.203-9.384 88.899-23.115 128.675-47.384 1.207-.742 2.773-.884 4.879-1.521 1.087 2.256 2.181 4.355 3.125 6.521 9.549 21.976 18.663 44.139 28.706 65.882 15.133 32.783 26.787 66.706 34.777 101.873 4.565 20.064 7 40.361 4.474 60.972-1.724 14.098-6.146 27.2-14.451 38.892-4.992 7.016-11.145 11.333-22.26 9.332 0-4.46.3-8.425-.052-12.33-1.259-13.911-1.791-27.971-4.302-41.658-6.978-38.06-20.911-73.894-36.913-108.956-1.027-2.256-2.121-4.677-3.845-6.341-1.199-1.154-3.598-1.761-5.322-1.536-3.02.39-3.98 3.17-3.335 5.659 1.117 4.317 2.766 8.514 4.43 12.659 11.895 29.688 23.137 59.586 30.363 90.825 8.739 37.783 8.619 75.198-4.512 112.171-9.811 27.619-23.857 52.653-42.932 74.973-7.076 8.29-16.242 14.84-21.054 25.108-.697 1.477-3.11 2.286-4.872 3.103-3.605 1.686-7.3 3.171-11.258 4.864-19.315-10.785-36.396-5.689-51.888 8.545-2.743-1.169-5.074-1.994-7.255-3.118-10.516-5.419-19.352-2.076-27.305 5.284-2.166 2.009-4.46 4.34-5.539 6.993-2.923 7.188-8.477 8.649-15.462 9.376-35.864 3.733-71.825 3.68-107.802 3.553-2.376-.007-4.744-.63-6.91-.944-1.439-3.388-2.473-6.198-3.793-8.874-4.587-9.324-12.277-14.211-22.485-15.177-7.03-.667-13.948-.285-20.514 2.818-2.616 1.244-5.397 2.129-8.2 3.208-6.888-6.806-13.911-12.314-23.212-13.948-10.193-1.799-18.235 3.388-25.581 8.432-4.902-2.496-8.769-4.819-12.899-6.491-5.209-2.113-10.306-2.743-15.23-2.009-.607-.817-1.439-1.544-2.466-2.114-.869-.48-1.836-.765-2.721-1.214-37.206-18.768-83.54-60.98-103.102-97.878-9.684-18.281-15.477-37.82-16.512-58.671-1.019-20.604.937-40.908 5.636-60.95 7.915-33.713 19.802-65.949 36.186-96.499 1.409-2.623 2.938-5.269 3.778-8.094.75-2.526-.15-5.284-2.893-6.094-1.582-.465-4.28-.105-5.277.982a48.916 48.916 0 0 0-6.91 9.669c-27.44 50.315-45.135 103.297-43.899 161.429.053 2.398-.517 4.812-.787 7.158-13.484-.337-18.37-2.263-25.895-9.991-6.048-6.213-9.961-13.708-12.839-21.773-6.491-18.138-8.522-36.936-7.645-56.056.914-19.997 3.47-39.836 8.132-59.301 7.937-33.166 18.228-65.372 38.247-93.726 8.395-11.895 14.323-25.214 16.534-39.821 1.342-8.882 2.451-17.808 3.245-26.758 3.11-34.972 3.185-69.487-6.139-104.046-11.168-41.388-12.562-83.877-6.528-126.404 6.198-43.599 21.091-84.192 43.951-121.75 9.339-15.342 19.682-30.078 29.808-44.925 7.18-10.531 6.588-12.629-5.501-15.665-.48-.12-1.004-.075-1.469-.225-3.133-.974-4.707-4.017-3.673-7.06 2.159-6.371 6.663-11.07 11.295-15.65 3.905-3.853 8.147-7.398 11.767-11.497 3.882-4.407 1.619-10.501-4.182-11.22-4.917-.607-9.953-.315-14.938-.337-8.072-.038-16.017-.922-23.257-4.737-14.301-7.548-16.055-20.522-4.37-31.607 5.936-5.644 13.214-8.897 20.904-11.288 12.974-4.025 26.308-5.876 39.851-6.161 9.991-.202 19.989-.023 29.98-.195 3.455-.06 7.023-.21 10.336-1.087 5.359-1.417 7.3-7.847 3.792-11.97-1.596-1.881-3.733-3.29-5.554-4.992-2.916-2.721-6.123-5.224-8.574-8.327-7.03-8.882-4.797-15.86 5.824-19.217 8.829-2.796 17.876-2.571 26.69-.727 18.063 3.793 36.156 7.645 53.949 12.494 35.841 9.781 72.125 15.657 109.353 16.152 23.46.307 46.949 1.237 70.326 3.088 29.133 2.301 56.993 9.998 83.06 23.489 2.286 1.184 4.092 3.313 7.3 5.989-6.558 1.544-11.393 2.631-16.212 3.815-28.781 7.113-56.018 18.146-81.719 32.881-14.001 8.027-26.518 17.936-35.826 31.329-22.013 31.689-40.893 65.132-55.336 100.959-7.6 18.873-10.261 38.555-7.75 58.814 2.533 20.402 7.443 40.241 15.117 59.331 4.122 10.261 9.736 19.682 16.849 28.189 8.252 9.848 16.309 19.869 24.749 29.561 39.267 45.113 87.22 72.095 148.582 72.215 32.686.06 64.78-3.305 96.349-11.722 3.725-.997 7.577-1.522 12.524-2.488.008 4.87.54 8.82-.097 12.575zm209.307-64.277c-13.686 3.268-27.657 3.635-41.65 3.823-14.975.195-29.965.15-44.896 1.034-23.572 1.402-46.14 7.697-68.527 14.938-25.618 8.29-51.281 16.549-77.267 23.565-36.531 9.871-73.909 11.317-111.437 7.577-18.018-1.791-35.234-6.963-51.259-15.567-19.038-10.231-35.924-23.415-51.521-38.285-2.159-2.054-4.047-4.415-5.884-6.768-.517-.66-.397-1.814-.974-4.894 24.464 2.331 46.432-4.347 68.265-11.415 34.215-11.078 68.79-20.626 104.346-26.375 37.977-6.138 76.075-10.995 114.63-10.756 61.797.382 117.508 19.967 168.587 53.904 1.986 1.319 3.71 3.036 6.633 5.456-3.859 1.642-6.355 3.126-9.046 3.763zm90.788-10.591c-.532 5.989-2.518 11.737-6.438 16.534-5.936 7.248-13.716 10.598-22.605 7.57-6.963-2.376-13.649-6.086-19.794-10.193-12.022-8.049-23.362-17.134-35.384-25.191-34.815-23.34-72.89-39.252-113.835-47.983-25.978-5.546-52.301-7.248-78.923-5.891-47.002 2.398-93.486 8.357-139.228 19.322-19.39 4.639-38.367 10.98-57.592 16.317-15.372 4.265-30.79 8.432-46.297 12.142-8.829 2.113-17.771 1.529-26.698-.697-11.67-2.916-20.949-9.121-28.107-18.633-6.963-9.264-12.494-19.39-15.53-30.55-4.055-14.908-7.99-29.905-10.77-45.083-2.826-15.44-1.064-30.91 3.897-45.832 2.518-7.57 5.329-15.073 8.582-22.343 12.247-27.417 27.207-53.342 43.659-78.436 8.642-13.191 19.592-23.969 33.143-31.959 29.928-17.658 61.849-30.22 96.147-36.254 7.33-1.289 14.908-1.169 18.978-1.462 26.068.36 48.013 5.276 69.847 10.523 27.717 6.663 54.684 15.77 80.542 27.799 23.534 10.943 46.889 22.268 70.169 33.743 75.153 37.033 126.359 96.117 158.206 172.799 6.693 16.114 13.146 32.341 17.014 49.49 2.576 11.423 2.036 22.838 1.017 34.268z" fill="rgba(27, 32, 51, 1)" stroke="none"/>
  <path d="M320.374 372.092c-.03-12.634 10.188-26.872 22.042-30.749 6.513-2.13 12.797-1.231 18.78 1.703 13.175 6.461 19.653 23.335 14.262 36.751-6.25 15.557-22.626 23.77-37.373 18.744-11.281-3.844-17.68-13.399-17.711-26.449z" fill="rgba(27, 32, 51, 1)" stroke="none"/>
  <circle cx="350.046" cy="364.118" r="12.483" fill="rgba(255, 243, 226, 1)" stroke="none"/>
</svg>
</g></svg></g></g>
<!-- /image 13456 -->

<!-- image 24404 -->
<g id="transformed-24404" data-image="24404" transform="translate(-8.017939344472609, -9.694638635183452) rotate(23, 38.01793934447261, 45.69463863518345)"><g><svg version="1.1" width="76.03587868894522px" height="91.3892772703669px" viewBox="0 0 76.03587868894522 91.3892772703669"><g id="original-24404"><svg xmlns="http://www.w3.org/2000/svg" viewBox="0 0 40 48" xmlns:xlink="http://www.w3.org/1999/xlink" version="1.1" preserveAspectRatio="xMidYMid meet">
  <path fill-rule="evenodd" d="M29.325 21.805c0 11.333-4.674 20.52-10.44 20.52-5.766 0-10.44-9.187-10.44-20.52s4.674-20.52 10.44-20.52c5.766 0 10.44 9.187 10.44 20.52" fill="rgba(255, 255, 255, 1)" stroke="none"/>
  <path fill-rule="evenodd" d="M32.205 24.685c0 11.333-4.674 20.52-10.44 20.52-5.766 0-10.44-9.187-10.44-20.52s4.674-20.52 10.44-20.52c5.766 0 10.44 9.187 10.44 20.52" fill="rgba(252, 229, 123, 1)" stroke="none"/>
  <path fill-rule="evenodd" d="M18.885 2.185c-5.171 0-9.54 8.985-9.54 19.62 0 10.635 4.369 19.62 9.54 19.62 5.171 0 9.54-8.985 9.54-19.62 0-10.635-4.369-19.62-9.54-19.62zm0 41.04c-6.359 0-11.34-9.409-11.34-21.42 0-12.011 4.981-21.42 11.34-21.42s11.34 9.409 11.34 21.42c0 12.011-4.981 21.42-11.34 21.42z" fill="rgba(103, 26, 29, 1)" stroke="none"/>
  <path fill-rule="evenodd" d="M14.985 44.401c-12.01-2.37-6.645-16.28-14.1-20.774 15.73 0 19.969 10.078 19.391 16.737-.229 2.639-2.692 4.55-5.291 4.037" fill="rgba(255, 255, 255, 1)" stroke="none"/>
  <path fill-rule="evenodd" d="M22.785 44.401c12.01-2.37 6.645-16.28 14.1-20.774-15.73 0-19.969 10.078-19.391 16.737.229 2.639 2.692 4.55 5.291 4.037" fill="rgba(255, 255, 255, 1)" stroke="none"/>
  <path fill-rule="evenodd" d="M18.765 47.281c-12.01-2.37-6.645-16.28-14.1-20.774 15.73 0 19.969 10.078 19.391 16.737-.229 2.639-2.692 4.55-5.291 4.037" fill="rgba(45, 176, 141, 1)" stroke="none"/>
  <path fill-rule="evenodd" d="M25.665 47.281c12.01-2.37 6.645-16.28 14.1-20.774-15.73 0-19.969 10.078-19.391 16.737.229 2.639 2.692 4.55 5.291 4.037" fill="rgba(45, 176, 141, 1)" stroke="none"/>
  <path fill-rule="evenodd" d="M15.645 24.265a.9.9 0 0 1-.9-.9c0-3.313.255-8.595.665-11.352a.899.899 0 1 1 1.78.265c-.398 2.676-.645 7.839-.645 11.087a.9.9 0 0 1-.9.9" fill="rgba(103, 26, 29, 1)" stroke="none"/>
  <path fill-rule="evenodd" d="M17.366 8.456a.9.9 0 0 1-.868-1.14c.099-.359.202-.706.306-1.04a.9.9 0 1 1 1.717.541c-.099.314-.194.64-.288.979a.9.9 0 0 1-.867.66" fill="rgba(103, 26, 29, 1)" stroke="none"/>
  <path fill-rule="evenodd" d="M17.534 21.248c-1.362 0-3.044-.303-4.844-1.328a.9.9 0 0 1 .892-1.564c3.471 1.977 6.33.685 6.452.629a.902.902 0 0 1 1.196.429.897.897 0 0 1-.421 1.195c-.09.043-1.368.639-3.275.639" fill="rgba(103, 26, 29, 1)" stroke="none"/>
  <path fill-rule="evenodd" d="M3.429 24.625c1.863 2.194 2.554 5.186 3.227 8.101 1.134 4.911 2.205 9.549 8.504 10.792a3.466 3.466 0 0 0 2.784-.646 3.628 3.628 0 0 0 1.435-2.585c.324-3.738-.998-7.623-3.537-10.393-2.792-3.044-7.051-4.844-12.413-5.269zm12.395 20.758c-.338 0-.677-.032-1.013-.099-7.442-1.468-8.752-7.145-9.908-12.153-.833-3.603-1.618-7.007-4.483-8.734a.899.899 0 0 1 .465-1.67c7.083 0 12.713 2.057 16.284 5.951 2.874 3.135 4.371 7.533 4.003 11.764a5.433 5.433 0 0 1-2.146 3.869 5.336 5.336 0 0 1-3.202 1.072z" fill="rgba(103, 26, 29, 1)" stroke="none"/>
  <path fill-rule="evenodd" d="M21.945 45.383a5.332 5.332 0 0 1-3.206-1.076.9.9 0 0 1 1.085-1.437 3.468 3.468 0 0 0 2.786.649c6.299-1.244 7.37-5.882 8.504-10.793.673-2.917 1.365-5.911 3.231-8.106-8.692.662-12.642 4.712-14.435 8.156a.9.9 0 1 1-1.596-.832c1.792-3.442 6.588-9.217 18.571-9.217a.9.9 0 0 1 .465 1.67c-2.865 1.727-3.65 5.131-4.483 8.734-1.156 5.008-2.466 10.685-9.908 12.153a5.186 5.186 0 0 1-1.014.099" fill="rgba(103, 26, 29, 1)" stroke="none"/>
</svg>
</g></svg></g></g>
<!-- /image 24404 -->
</defs><rect x="0" y="0" width="250" height="250" fill="rgba(237, 147, 161, 1)"></rect><use xlink:href="#transformed-tmp-2" transform="translate(-250, -250)"></use><use xlink:href="#transformed-tmp-2" transform="translate(0, -250)"></use><use xlink:href="#transformed-tmp-2" transform="translate(250, -250)"></use><use xlink:href="#transformed-tmp-2" transform="translate(-250, 0)"></use><use xlink:href="#transformed-tmp-2" transform="translate(0, 0)"></use><use xlink:href="#transformed-tmp-2" transform="translate(250, 0)"></use><use xlink:href="#transformed-tmp-2" transform="translate(-250, 250)"></use><use xlink:href="#transformed-tmp-2" transform="translate(0, 250)"></use><use xlink:href="#transformed-tmp-2" transform="translate(250, 250)"></use><use xlink:href="#transformed-13456" transform="translate(-250, -250)"></use><use xlink:href="#transformed-13456" transform="translate(0, -250)"></use><use xlink:href="#transformed-13456" transform="translate(250, -250)"></use><use xlink:href="#transformed-13456" transform="translate(-250, 0)"></use><use xlink:href="#transformed-13456" transform="translate(0, 0)"></use><use xlink:href="#transformed-13456" transform="translate(250, 0)"></use><use xlink:href="#transformed-13456" transform="translate(-250, 250)"></use><use xlink:href="#transformed-13456" transform="translate(0, 250)"></use><use xlink:href="#transformed-13456" transform="translate(250, 250)"></use><use xlink:href="#transformed-24404" transform="translate(-250, -250)"></use><use xlink:href="#transformed-24404" transform="translate(0, -250)"></use><use xlink:href="#transformed-24404" transform="translate(250, -250)"></use><use xlink:href="#transformed-24404" transform="translate(-250, 0)"></use><use xlink:href="#transformed-24404" transform="translate(0, 0)"></use><use xlink:href="#transformed-24404" transform="translate(250, 0)"></use><use xlink:href="#transformed-24404" transform="translate(-250, 250)"></use><use xlink:href="#transformed-24404" transform="translate(0, 250)"></use><use xlink:href="#transformed-24404" transform="translate(250, 250)"></use></svg>